<svg id="Layer_1" data-name="Layer 1" xmlns="http://www.w3.org/2000/svg" viewBox="0 0 4381.06 1753.17"><defs><style>.cls-1{fill:#fff;}</style></defs><title>bc_full</title><rect class="cls-1" x="2069.11" y="227.49" width="10.01" height="51.02"/><path class="cls-1" d="M2713.28,875.57h9.89v-50.9h-9.89Zm10,.11h-10.13V824.55h10.13Z" transform="translate(-644.12 -597.1)"/><path class="cls-1" d="M2713.22,793.46V740.8a4.69,4.69,0,0,1,4.68-4.68h.66a4.68,4.68,0,0,1,4.67,4.68v52.66Z" transform="translate(-644.12 -597.1)"/><path class="cls-1" d="M2713.28,793.41h9.89V740.79a4.61,4.61,0,0,0-4.6-4.61h-.67a4.62,4.62,0,0,0-4.62,4.61Zm10,.12h-10.13V740.79a4.75,4.75,0,0,1,4.74-4.73h.67a4.74,4.74,0,0,1,4.72,4.73Z" transform="translate(-644.12 -597.1)"/><rect class="cls-1" x="2676.16" y="839.96" width="10.01" height="51.03" transform="translate(-471.66 1550.58) rotate(-44.96)"/><path class="cls-1" d="M2659.66,851l36,36,7-7-36-36Zm36,36.16L2659.49,851l7.17-7.17L2702.81,880Z" transform="translate(-644.12 -597.1)"/><path class="cls-1" d="M2600.32,791.7a4.66,4.66,0,0,1,0-6.59l.47-.47a4.62,4.62,0,0,1,6.6,0l37.25,37.24-7.07,7.08Z" transform="translate(-644.12 -597.1)"/><path class="cls-1" d="M2604.1,783.32a4.59,4.59,0,0,0-3.27,1.36l-.47.47a4.59,4.59,0,0,0,0,6.5l37.2,37.22,7-7-37.2-37.2a4.58,4.58,0,0,0-3.25-1.35M2637.56,829l-37.29-37.29a4.73,4.73,0,0,1,0-6.68l.48-.46a4.7,4.7,0,0,1,6.68,0l37.29,37.28Z" transform="translate(-644.12 -597.1)"/><rect class="cls-1" x="1996.17" y="300.43" width="51.03" height="10.01"/><path class="cls-1" d="M2640.34,907.48h50.91v-9.89h-50.91Zm51,.13h-51.15V897.48h51.15Z" transform="translate(-644.12 -597.1)"/><path class="cls-1" d="M2556.48,907.54a4.67,4.67,0,0,1-4.67-4.66v-.68a4.67,4.67,0,0,1,4.67-4.66h52.67v10Z" transform="translate(-644.12 -597.1)"/><path class="cls-1" d="M2556.48,897.6a4.61,4.61,0,0,0-4.61,4.6v.67a4.62,4.62,0,0,0,4.61,4.62h52.62V897.6Zm52.73,10h-52.73a4.73,4.73,0,0,1-4.72-4.74v-.67a4.72,4.72,0,0,1,4.72-4.72h52.73Z" transform="translate(-644.12 -597.1)"/><rect class="cls-1" x="2655.65" y="934.61" width="51.02" height="10.01" transform="translate(-523.23 1573.97) rotate(-45)"/><path class="cls-1" d="M2659.66,954.11l7,7,36-36-7-7Zm7,7.16-7.17-7.16L2695.66,918l7.15,7.15Z" transform="translate(-644.12 -597.1)"/><path class="cls-1" d="M2604.09,1021.82a4.61,4.61,0,0,1-3.29-1.37l-.48-.48a4.67,4.67,0,0,1,0-6.6l37.25-37.24,7.07,7.08-37.25,37.24a4.62,4.62,0,0,1-3.3,1.37" transform="translate(-644.12 -597.1)"/><path class="cls-1" d="M2637.56,976.21l-37.2,37.2a4.63,4.63,0,0,0,0,6.52l.49.47a4.58,4.58,0,0,0,6.51,0l37.2-37.2Zm-33.46,45.66a4.61,4.61,0,0,1-3.34-1.38l-.49-.47a4.77,4.77,0,0,1,0-6.7l37.29-37.27,7.16,7.15-37.29,37.29a4.62,4.62,0,0,1-3.33,1.38" transform="translate(-644.12 -597.1)"/><rect class="cls-1" x="2069.11" y="332.35" width="10.01" height="51.03"/><path class="cls-1" d="M2713.28,980.42h9.89v-50.9h-9.89Zm10,.12h-10.13V929.39h10.13Z" transform="translate(-644.12 -597.1)"/><path class="cls-1" d="M2717.89,1069a4.67,4.67,0,0,1-4.67-4.66v-52.68h10v52.68a4.66,4.66,0,0,1-4.66,4.66Z" transform="translate(-644.12 -597.1)"/><path class="cls-1" d="M2713.28,1011.67v52.62a4.62,4.62,0,0,0,4.61,4.61h.68a4.62,4.62,0,0,0,4.6-4.61v-52.62Zm5.29,57.34h-.68a4.72,4.72,0,0,1-4.73-4.72v-52.73h10.13v52.73a4.72,4.72,0,0,1-4.72,4.72" transform="translate(-644.12 -597.1)"/><rect class="cls-1" x="2750.29" y="914.1" width="10.01" height="51.02" transform="translate(-501.51 1626.4) rotate(-45)"/><path class="cls-1" d="M2733.8,925.11l36,36,7-7-36-36Zm36,36.16-36.16-36.16,7.15-7.15L2777,954.11Z" transform="translate(-644.12 -597.1)"/><path class="cls-1" d="M2832.36,1021.82a4.61,4.61,0,0,1-3.29-1.37l-37.25-37.24,7.07-7.08,37.25,37.24a4.68,4.68,0,0,1,0,6.61l-.47.47a4.68,4.68,0,0,1-3.31,1.37" transform="translate(-644.12 -597.1)"/><path class="cls-1" d="M2791.9,983.2l37.21,37.2a4.51,4.51,0,0,0,3.25,1.36,4.63,4.63,0,0,0,3.27-1.36l.46-.46a4.61,4.61,0,0,0,0-6.52l-37.19-37.21Zm40.46,38.67a4.6,4.6,0,0,1-3.33-1.38l-37.29-37.29,7.16-7.15,37.28,37.28a4.74,4.74,0,0,1,0,6.7l-.47.46a4.66,4.66,0,0,1-3.35,1.38" transform="translate(-644.12 -597.1)"/><rect class="cls-1" x="2101.02" y="300.43" width="51.02" height="10.01"/><path class="cls-1" d="M2745.2,907.48h50.9v-9.89h-50.9Zm51,.13h-51.14V897.48h51.14Z" transform="translate(-644.12 -597.1)"/><path class="cls-1" d="M2827.31,907.54v-10H2880a4.66,4.66,0,0,1,4.66,4.66v.68a4.66,4.66,0,0,1-4.66,4.66Z" transform="translate(-644.12 -597.1)"/><path class="cls-1" d="M2827.37,907.49H2880a4.62,4.62,0,0,0,4.61-4.62v-.67a4.61,4.61,0,0,0-4.61-4.6h-52.6Zm52.6.12h-52.73V897.48H2880a4.74,4.74,0,0,1,4.74,4.72v.67a4.75,4.75,0,0,1-4.74,4.74" transform="translate(-644.12 -597.1)"/><rect class="cls-1" x="2729.79" y="860.46" width="51.03" height="10.01" transform="translate(-449.09 1604.68) rotate(-45)"/><path class="cls-1" d="M2733.8,880l7,7,36-36-7-7Zm7,7.16-7.17-7.16,36.18-36.17L2777,851Z" transform="translate(-644.12 -597.1)"/><path class="cls-1" d="M2791.82,821.87l37.25-37.24a4.64,4.64,0,0,1,6.59,0l.49.49a4.69,4.69,0,0,1,0,6.59l-37.24,37.24Z" transform="translate(-644.12 -597.1)"/><path class="cls-1" d="M2791.9,821.87l7,7,37.2-37.22a4.61,4.61,0,0,0,0-6.5l-.49-.48a4.58,4.58,0,0,0-6.5,0Zm7,7.16-7.17-7.16L2829,784.6a4.6,4.6,0,0,1,3.33-1.4,4.68,4.68,0,0,1,3.34,1.39l.48.47a4.7,4.7,0,0,1,0,6.68Z" transform="translate(-644.12 -597.1)"/><path class="cls-1" d="M2718.23,828.9a73.64,73.64,0,1,0,73.63,73.64,73.72,73.72,0,0,0-73.63-73.64m0,157.23a83.6,83.6,0,1,1,83.59-83.59,83.7,83.7,0,0,1-83.59,83.59m0-186.82a103.23,103.23,0,1,0,103.23,103.23,103.34,103.34,0,0,0-103.23-103.23m0,216.42a113.19,113.19,0,1,1,113.19-113.19,113.32,113.32,0,0,1-113.19,113.19" transform="translate(-644.12 -597.1)"/><path class="cls-1" d="M2718.23,829a73.58,73.58,0,1,0,73.57,73.58A73.67,73.67,0,0,0,2718.23,829m0,147.28a73.7,73.7,0,1,1,73.69-73.7,73.78,73.78,0,0,1-73.69,73.7m0-157.23a83.54,83.54,0,1,0,83.54,83.53A83.62,83.62,0,0,0,2718.23,819m0,167.19a83.66,83.66,0,1,1,83.65-83.66,83.74,83.74,0,0,1-83.65,83.66m0-186.82A103.17,103.17,0,1,0,2821.4,902.54a103.28,103.28,0,0,0-103.17-103.16m0,206.45a103.29,103.29,0,1,1,103.29-103.29,103.41,103.41,0,0,1-103.29,103.29m0-216.42a113.14,113.14,0,1,0,113.13,113.13,113.26,113.26,0,0,0-113.13-113.13m0,226.38a113.25,113.25,0,1,1,113.25-113.25,113.38,113.38,0,0,1-113.25,113.25" transform="translate(-644.12 -597.1)"/><path class="cls-1" d="M2718.23,875.78A26.76,26.76,0,1,0,2745,902.54a26.8,26.8,0,0,0-26.76-26.76m0,63.48a36.72,36.72,0,1,1,36.71-36.72,36.77,36.77,0,0,1-36.71,36.72" transform="translate(-644.12 -597.1)"/><path class="cls-1" d="M2718.23,875.83a26.71,26.71,0,1,0,26.7,26.7,26.74,26.74,0,0,0-26.7-26.7m0,53.53A26.82,26.82,0,1,1,2745,902.53a26.86,26.86,0,0,1-26.81,26.83m0-63.48a36.66,36.66,0,1,0,36.66,36.65,36.7,36.7,0,0,0-36.66-36.65m0,73.44A36.78,36.78,0,1,1,2755,902.53a36.82,36.82,0,0,1-36.77,36.79" transform="translate(-644.12 -597.1)"/><path class="cls-1" d="M3114.17,607.25l-787.26.3a1.49,1.49,0,0,0-1.49,1.48l.29,726.36a1.45,1.45,0,0,0,.79,1.3L2720,1548a1.47,1.47,0,0,0,1.41,0L3115,1336.43a1.47,1.47,0,0,0,.79-1.3l-.15-726.39a1.49,1.49,0,0,0-1.49-1.49m-393.49,951.61a10.32,10.32,0,0,1-4.8-1.2l-395.25-212.43a10.14,10.14,0,0,1-5.36-9v-729a10.17,10.17,0,0,1,10.15-10.15h790.52a10.17,10.17,0,0,1,10.16,10.15v729a10.13,10.13,0,0,1-5.37,9l-395.24,212.43a10.32,10.32,0,0,1-4.81,1.2" transform="translate(-644.12 -597.1)"/><path class="cls-1" d="M3055.17,666.26l-669.26.29a1.48,1.48,0,0,0-1.48,1.48l.29,632.08a1.48,1.48,0,0,0,.78,1.3L2720,1481a1.53,1.53,0,0,0,1.41,0L3056,1301.16a1.48,1.48,0,0,0,.78-1.3l-.14-632.12a1.49,1.49,0,0,0-1.49-1.48m-334.49,825.62a10.21,10.21,0,0,1-4.8-1.21L2379.63,1310a10.13,10.13,0,0,1-5.36-9V666.26a10.17,10.17,0,0,1,10.16-10.16h672.51a10.17,10.17,0,0,1,10.16,10.16V1301a10.11,10.11,0,0,1-5.38,9l-336.23,180.71a10.22,10.22,0,0,1-4.81,1.21" transform="translate(-644.12 -597.1)"/><path class="cls-1" d="M2873.51,1379.05l13.39,19.32,8.49-4.56-9.87-14.24a143.11,143.11,0,0,1,27.52,4.77l12.08-6.49c-42.59-14.49-90.92-10-129.61,14.2-45.28,28.41-104.93,28.41-150.22,0-38.32-24-86.1-28.62-128.39-14.64l12,6.43a123.8,123.8,0,0,1,16.54-3.6l13.8,19.9,18.55,10-21.23-30.64a144.82,144.82,0,0,1,30.3,1.19l37.9,54.68,18.56,10-42.86-61.85a138.31,138.31,0,0,1,39.78,16.7c.64.4,1.34.66,2,1l48.05,69.33,18.57,10-48.47-70A151.63,151.63,0,0,0,2697,1421l40.15,57.92,8.49-4.57-36.16-52.17a155.76,155.76,0,0,0,29.13-.49l28.49,41.11,8.49-4.56L2749,1419.89a151.17,151.17,0,0,0,24.7-6.88l23.34,33.67,8.48-4.56-22.59-32.59a144.94,144.94,0,0,0,17.67-9.35c1.26-.78,2.63-1.31,3.9-2.06l22.49,32.46,8.49-4.56L2813,1393.61a141,141,0,0,1,23.13-9.15l20.8,30,8.49-4.56-19.16-27.65a145.25,145.25,0,0,1,27.23-3.22" transform="translate(-644.12 -597.1)"/><path class="cls-1" d="M2728.44,1483.55l4.87-2.62a150.27,150.27,0,0,1-23.53.14l4.62,2.48a14.86,14.86,0,0,0,14,0" transform="translate(-644.12 -597.1)"/><path class="cls-1" d="M2448.13,1143.48l31.49,45.43a136,136,0,0,1-22.44,10.14l-35.58-51.35a152.85,152.85,0,0,0,26.53-4.22m32.34-12.67,29.83,43a147.3,147.3,0,0,0-22.15,10.57l-30.4-43.88a147.34,147.34,0,0,0,22.72-9.72m9.5-5a135,135,0,0,1,20.88-10.49l34.3,49.49a153.35,153.35,0,0,0-25.51,5.71L2489,1126.3c.31-.19.65-.31,1-.5m55.44-20,40.94,59.09a154.29,154.29,0,0,0-30.08-.89L2520.19,1112a142,142,0,0,1,25.22-6.12m41.41.42,53.54,77.26a148.58,148.58,0,0,0-40.42-15.78l-43.42-62.66a145.5,145.5,0,0,1,30.3,1.18m53.39,19.53c.62.39,1.33.65,2,1l54.3,78.36a140.64,140.64,0,0,1-37.75-11.94l-58.32-84.17a138.75,138.75,0,0,1,39.79,16.71m56.77,20.77,41.32,59.63a144.89,144.89,0,0,1-29.15.46l-48.82-70.46a151.11,151.11,0,0,0,36.65,10.37m41.6.7,34.56,49.88a139.33,139.33,0,0,1-24.5,7.15l-39.19-56.54a154.09,154.09,0,0,0,29.13-.49m35.12-8.65,30,43.22c-2.71,1.46-5.53,2.66-8.15,4.29a133.46,133.46,0,0,1-13.42,7.11L2749,1145.5a149.91,149.91,0,0,0,24.7-6.88m26.9-12.82c1.26-.8,2.62-1.33,3.9-2.07l31.23,45.07a148.89,148.89,0,0,0-23.54,8.54l-29.25-42.2a149.12,149.12,0,0,0,17.66-9.34m35.54-15.72,37.11,53.53a156.28,156.28,0,0,0-27.33,3.09L2813,1119.23a139,139,0,0,1,23.11-9.15m37.38-5.41,45,64.89a153.22,153.22,0,0,0-33.26-5.47l-38.95-56.2a142.81,142.81,0,0,1,27.24-3.22m45.88,6.87,59.47,85.82a136.14,136.14,0,0,1-22.95-11.23,146.9,146.9,0,0,0-22-11.05l-48.46-69.91a143.43,143.43,0,0,1,33.89,6.37m31.44,14.26a147.29,147.29,0,0,0,28.95,13.56l47,67.78a143.77,143.77,0,0,1-32.68-4.63l-58.9-85a136.22,136.22,0,0,1,15.65,8.28m-570.61,19.43a151.6,151.6,0,0,0,30.24,3.23l37.31,53.82a144,144,0,0,1-26.45,4.36l-41.1-59.31v16.81l30,43.25a142.11,142.11,0,0,1-30-3.42v9.83c37.28,7.26,77,1,109.74-19.53,45.3-28.38,104.91-28.38,150.24,0,48.34,30.28,112,30.28,160.39,0,45.34-28.36,104.92-28.38,150.24,0,33.34,20.87,73.9,27,111.76,19.1v-9.78a144.62,144.62,0,0,1-24.32,3.35l-43.71-63.06a154.3,154.3,0,0,0,32.49,4.36l35.54,51.29v-16.81L3038.54,1148a153.61,153.61,0,0,0,24.06-3.17v-9.65c-36,8.07-74.85,2.44-106.68-17.51-48.38-30.25-112-30.25-160.41,0-45.28,28.41-104.93,28.41-150.22,0-48.39-30.27-112.05-30.23-160.41,0-31.22,19.58-69.19,25.34-104.65,17.91Z" transform="translate(-644.12 -597.1)"/><path class="cls-1" d="M2380.23,1295.09a14.86,14.86,0,0,0,7.8,13.07l13.65,7.32-21.45-31Z" transform="translate(-644.12 -597.1)"/><path class="cls-1" d="M2955.92,1323.33a146.58,146.58,0,0,0-22-11.06l-48.45-69.9a143.42,143.42,0,0,1,33.89,6.36l59.47,85.83a136.91,136.91,0,0,1-22.95-11.23m-70.69-22-39-56.21a145.44,145.44,0,0,1,27.24-3.21l45,64.9a153.75,153.75,0,0,0-33.26-5.48m-39.31,2.61L2813,1256.42a138.81,138.81,0,0,1,23.12-9.15l37.1,53.54a155.31,155.31,0,0,0-27.33,3.08m-33.73,10.64-29.25-42.2a144.9,144.9,0,0,0,17.66-9.35c1.26-.78,2.62-1.31,3.91-2.06l31.22,45.07a150.9,150.9,0,0,0-23.54,8.54m-16.68,8.8a134.46,134.46,0,0,1-13.42,7.1L2749,1282.7a151.9,151.9,0,0,0,24.7-6.88l30,43.22c-2.71,1.45-5.53,2.65-8.15,4.29m-46.88,18.17L2709.45,1285a154.93,154.93,0,0,0,29.13-.5l34.56,49.89a140.91,140.91,0,0,1-24.51,7.15m-39.48,2.35-48.82-70.46a150.73,150.73,0,0,0,36.64,10.38l41.34,59.63a145.73,145.73,0,0,1-29.16.45m-50.41-13.4-58.32-84.16a138.7,138.7,0,0,1,39.79,16.69c.63.41,1.33.67,2,1l54.3,78.36a140.64,140.64,0,0,1-37.75-11.94m-58.8-25.51-43.42-62.66a144.82,144.82,0,0,1,30.3,1.19l53.54,77.26a148.61,148.61,0,0,0-40.42-15.79m-43.67-3.7-36.09-52.07a141.5,141.5,0,0,1,25.23-6.13l40.94,59.09a154.29,154.29,0,0,0-30.08-.89m-36.63,6.46L2489,1263.49c.31-.19.66-.31,1-.51a137.24,137.24,0,0,1,20.88-10.48l34.29,49.5a154.45,154.45,0,0,0-25.5,5.7m-31.49,13.9-30.41-43.88a146.07,146.07,0,0,0,22.73-9.72l29.83,43a146.29,146.29,0,0,0-22.15,10.56m-31,14.65-35.58-51.35a153.66,153.66,0,0,0,26.53-4.22l31.49,45.44a138.5,138.5,0,0,1-22.44,10.13m536.91,3.46-58.9-85a139.35,139.35,0,0,1,15.65,8.27,146.16,146.16,0,0,0,28.95,13.57l36.31,52.4,8.49-4.56-30-43.32a154.3,154.3,0,0,0,32.48,4.36l19,27.41,8.5-4.56-16-23.09a154.82,154.82,0,0,0,24.06-3.18v-9.65c-36,8.08-74.85,2.44-106.68-17.5-48.38-30.26-112-30.26-160.41,0-45.28,28.41-104.93,28.41-150.22,0-48.39-30.28-112.05-30.24-160.41,0-31.22,19.58-69.19,25.33-104.65,17.92v9.65a151.67,151.67,0,0,0,30.24,3.22l37.31,53.83c-.35.09-.7.13-1,.22l11.66,6.27a146.7,146.7,0,0,0,31.57-14.5c45.3-28.38,104.91-28.38,150.24,0,48.34,30.27,112,30.27,160.39,0,45.34-28.36,104.92-28.38,150.24,0a147.84,147.84,0,0,0,32.78,14.93l11.92-6.4c-.48-.12-1-.17-1.45-.29" transform="translate(-644.12 -597.1)"/><path class="cls-1" d="M4930.71,2171.58h-.47c51.39-5.9,78.8-35.77,78.8-77.39,0-51.38-39.17-76.86-117-76.86h-4.73v14.26c36.78,2.44,53.71,20.19,53.71,60.67,0,50.92-26.94,75.4-72.48,75.4h-11.74V2030.59h.32v-13.26h-108v11.27l41.61,4.92v294.2l-42.13,4.9v11.75H4857.1v-13.7c-.1,0-.24,0-.32,0V2181.82c.51,0,7.36-.48,12.73-.48a182.46,182.46,0,0,1,40.63,4.44c31.85,7.32,48,29.35,48,66.06,0,28.88-7.84,49.92-23,62.19-13,10.91-29.39,16.14-47.81,17.69v12.65h.34c40.63,0,73.94-7.36,99.38-22,25.47-14.2,38.16-36.71,38.16-66.58,0-47.47-28.35-72-94.46-84.18" transform="translate(-644.12 -597.1)"/><path class="cls-1" d="M3768.05,2291c20.58,28.88,47,43.09,78.81,43.09,25,0,47-3.93,66.1-12.23l19.58-61.72h15.67l-2.93,70a334.49,334.49,0,0,1-109.66,18.6c-121.4,0-171.84-81.73-171.84-172.79q0-75.67,49.92-120.42c32.79-29.87,76.39-44.54,130.23-44.54,30.85,0,64.59,7.31,101.35,22.51v83.22h-19.11l-13.73-74.92q-27.89-14.65-70.49-14.68c-29.36,0-54.32,13.69-74.42,41.62s-30.34,64.6-30.34,110.13c0,46.05,10.29,83.23,30.86,112.11" transform="translate(-644.12 -597.1)"/><path class="cls-1" d="M4649.72,2036.44v193.37c0,30.85-6.36,67.57-32.79,93-16.65,15.66-46.05,27.46-84.7,27.46-94,0-139.52-34.78-139.52-113.62V2033.51l-41.15-4.38v-11.8h148.83v11.8l-42.56,4.38v193.37c0,72.95,24.43,106.21,78.79,106.21,63.13,0,89.61-28.87,89.61-107.68v-189l-36.24-4.91v-14.2h99.37v15.2Z" transform="translate(-644.12 -597.1)"/><polygon class="cls-1" points="2243.05 1515.38 2232.56 1489.55 2141.22 1722.78 2104 1735.52 2104 1747.27 2206.34 1747.27 2206.34 1735.52 2162.74 1722.78 2243.05 1515.38"/><polygon class="cls-1" points="2423.67 1731.13 2293.96 1420.23 2259.71 1420.23 2245.81 1455.72 2304.72 1600.38 2235.19 1600.38 2228.19 1618.5 2312.08 1618.5 2357.1 1731.13 2317.45 1735.52 2317.45 1747.27 2461.37 1747.27 2461.37 1735.52 2423.67 1731.13"/><path class="cls-1" d="M2522.68,2332.9c-53.32-8.24-80.14-58.8-80.14-153,0-91.27,22.34-144.81,80.14-153v-15.54c-44.67,3.06-80.92,18.23-108,46.7-30.86,32.27-46,72.94-46,121.88s15.14,89.6,46,121.4c27.11,28.88,63.36,44.1,108,47.18Z" transform="translate(-644.12 -597.1)"/><path class="cls-1" d="M2661.38,2058c-27.83-28.72-64.07-44-108.51-46.8v15.51c57.4,7.69,79.64,61.32,79.64,153.16,0,94.87-26.77,145.44-79.64,153.15v15.53c44.44-2.86,80.68-18.12,108.51-47.27,30.34-31.8,45.54-72.47,45.54-121.41s-15.2-89.6-45.54-121.87" transform="translate(-644.12 -597.1)"/><polygon class="cls-1" points="1080.75 1674.32 1055.27 1730.14 933.39 1731.6 933.39 1436.41 1040.6 1437.87 1059.7 1489.78 1075.37 1489.78 1075.37 1420.23 825.72 1420.23 825.72 1432.03 868.28 1436.41 868.28 1731.13 825.72 1735.52 825.72 1747.27 1090.52 1747.27 1096.41 1674.32 1080.75 1674.32"/><polygon class="cls-1" points="1043.05 1622.94 1057.25 1622.94 1057.25 1531.88 1043.52 1531.88 1028.38 1568.11 963.55 1568.11 963.55 1585.71 1028.38 1585.71 1043.05 1622.94"/><polygon class="cls-1" points="742.61 1432.02 742.61 1420.23 592.8 1420.23 592.8 1432.02 635.41 1436.42 635.41 1568.11 511.13 1568.11 511.13 1585.71 635.41 1585.71 635.41 1731.13 592.8 1735.52 592.8 1747.27 742.61 1747.27 742.61 1735.52 700 1731.13 700 1436.42 742.61 1432.02"/><polygon class="cls-1" points="480.69 1436.41 523.29 1432.02 523.29 1420.23 373.01 1420.23 373.01 1432.02 415.57 1436.41 415.57 1731.13 373.01 1735.52 373.01 1747.27 523.29 1747.27 523.29 1735.52 480.69 1731.13 480.69 1436.41"/><polygon class="cls-1" points="181.17 1419.49 148.83 1419.29 0 1420.23 0 1494.17 14.2 1494.17 37.18 1437.88 116.03 1436.88 116.03 1731.13 70.5 1735.52 70.5 1747.27 226.63 1747.27 226.63 1735.52 181.15 1731.13 181.17 1419.49"/><polygon class="cls-1" points="211.36 1419.68 211.36 1437.26 259.94 1437.88 282.97 1494.17 297.64 1494.17 297.64 1420.23 211.36 1419.68"/><polygon class="cls-1" points="2670.18 1419.48 2638.47 1419.28 2489.65 1420.23 2489.65 1494.17 2503.85 1494.17 2526.83 1437.88 2605.68 1436.88 2605.68 1731.13 2560.15 1735.52 2560.15 1747.27 2716.28 1747.27 2716.28 1735.52 2670.79 1731.13 2670.18 1419.48"/><polygon class="cls-1" points="2700.38 1419.68 2700.38 1437.26 2749.59 1437.88 2772.62 1494.17 2787.29 1494.17 2787.29 1420.23 2700.38 1419.68"/><path class="cls-1" d="M2189.18,2171.58h-.48c51.39-5.9,78.81-35.77,78.81-77.39,0-51.38-39.17-76.86-117-76.86h-4.72v14.26c36.76,2.44,53.7,20.19,53.7,60.67,0,50.92-26.94,75.4-72.47,75.4h-11.75V2030.59h.32v-13.26h-108v11.27l41.62,4.92v294.2l-42.14,4.9v11.75h108.52v-13.7c-.1,0-.23,0-.32,0V2181.82c.51,0,7.36-.48,12.73-.48a182.46,182.46,0,0,1,40.63,4.44c31.85,7.32,48,29.35,48,66.06,0,28.88-7.83,49.92-23,62.19-13,10.91-29.38,16.14-47.8,17.69v12.65h.33c40.63,0,73.95-7.36,99.38-22,25.47-14.2,38.17-36.71,38.17-66.58,0-47.47-28.35-72-94.46-84.18" transform="translate(-644.12 -597.1)"/><polygon class="cls-1" points="3503.91 1731.61 3503.8 1731.61 3503.8 1436.42 3546.4 1431.51 3546.4 1420.23 3396.12 1420.23 3396.12 1431.51 3438.68 1436.42 3438.68 1731.13 3396.12 1735.52 3396.12 1747.27 3503.91 1747.27 3503.91 1731.61"/><polygon class="cls-1" points="3651.15 1674.32 3625.67 1730.14 3534.11 1731.24 3534.11 1747.27 3660.92 1747.27 3666.82 1674.32 3651.15 1674.32"/></svg>