<svg xmlns="http://www.w3.org/2000/svg" viewBox="0 0 67.75 12.69"><defs><style>.cls-1{fill:#fff;}</style></defs><g id="Layer_2" data-name="Layer 2"><g id="Layer_1-2" data-name="Layer 1"><path class="cls-1" d="M20.36,0l2.11,5.4L24.6,0l2.1,5.38a.72.72,0,0,1,.07-.15l2-5.17,0-.07h.77L28.49,2.82C28,4.08,27.47,5.35,27,6.61a.24.24,0,0,1-.25.18c-.16,0-.2-.07-.25-.19L24.7,2.18c0-.06-.05-.13-.09-.22l-.09.19L22.73,6.61a.23.23,0,0,1-.25.18.22.22,0,0,1-.24-.18L19.66.18A1.42,1.42,0,0,0,19.58,0Z"/><path class="cls-1" d="M46.56,0a8.42,8.42,0,0,1,.86.24,3.38,3.38,0,0,1,2.13,3.38,3.36,3.36,0,0,1-2.48,3.1,3.4,3.4,0,0,1-4.34-2.63,3.36,3.36,0,0,1,2.82-4l.08,0ZM48.8,3.43a2.69,2.69,0,1,0-5.38-.05,2.69,2.69,0,1,0,5.38.05Z"/><path class="cls-1" d="M54.26,0c.31.41.62.83.94,1.23l3,3.85s.07.08.12.15V.09H59V6.83a.45.45,0,0,1-.52-.17C57.22,5,55.94,3.36,54.67,1.72l-.09-.1V6.76h-.72c0-.07,0-.15,0-.23V.25a2.11,2.11,0,0,0,0-.25Z"/><path class="cls-1" d="M12.59,0c.13.36.26.72.41,1.08q1.1,2.76,2.21,5.51l.07.19c-.25,0-.47,0-.69,0-.05,0-.11-.08-.13-.13-.16-.37-.31-.74-.45-1.12a.2.2,0,0,0-.22-.15H11a.2.2,0,0,0-.23.15c-.13.37-.28.74-.42,1.11a.19.19,0,0,1-.22.15c-.19,0-.39,0-.61,0,0-.09.06-.16.09-.22L12.17.07l0-.07ZM11.1,4.62h2.55L12.36,1.37Z"/><path class="cls-1" d="M36.53,0l.07,0A2,2,0,0,1,38,1.14l-.59.39a2.75,2.75,0,0,0-.19-.28A1.28,1.28,0,0,0,35.87.71a.79.79,0,0,0-.69.58.9.9,0,0,0,.27,1,5.3,5.3,0,0,0,.76.46c.38.2.79.36,1.16.58a1.88,1.88,0,0,1,1,1.67,1.66,1.66,0,0,1-1.15,1.67,2.53,2.53,0,0,1-2.65-.46,6.26,6.26,0,0,1-.68-.87L34.57,5l.17.3A1.76,1.76,0,0,0,36.92,6a1.09,1.09,0,0,0,.35-1.85,3.68,3.68,0,0,0-.75-.48c-.33-.18-.68-.32-1-.49a1.81,1.81,0,0,1-1-1.12A1.58,1.58,0,0,1,35.67.05l.12,0Z"/><path class="cls-1" d="M67.75,5.35c0,.14-.08.29-.14.42a1.91,1.91,0,0,1-1.7,1.07,2.43,2.43,0,0,1-2.58-1.52L64,5c.08.13.14.25.22.37A1.78,1.78,0,0,0,66.34,6a1.1,1.1,0,0,0,.28-1.88,4.12,4.12,0,0,0-.75-.47c-.41-.21-.84-.38-1.23-.62a1.63,1.63,0,0,1-.78-1.88A1.54,1.54,0,0,1,65,.07L65.19,0h.73l.22.07a2.09,2.09,0,0,1,1.28,1.07l-.58.38,0,0a1.3,1.3,0,0,1-.1-.15A1.31,1.31,0,0,0,65.37.7a.87.87,0,0,0-.83,1,.92.92,0,0,0,.46.69c.36.2.74.38,1.12.56a2.5,2.5,0,0,1,1.63,1.7Z"/><path class="cls-1" d="M0,.07A13.67,13.67,0,0,1,2.64.19,3.08,3.08,0,0,1,5.18,3.35a3.29,3.29,0,0,1-.82,2.36,3.17,3.17,0,0,1-1.55.9A10.51,10.51,0,0,1,0,6.76Zm.74,6A5.37,5.37,0,0,0,3,5.81,2.13,2.13,0,0,0,4.3,4.28a3.88,3.88,0,0,0,.11-1.13A2.25,2.25,0,0,0,2.91,1,5.18,5.18,0,0,0,1.74.78c-.33,0-.67,0-1,0Z"/><path class="cls-1" d="M36.05,12.69l-.16-.12.39-.54a.61.61,0,0,1-.45-1.11.65.65,0,0,1,.74,0,.6.6,0,0,1,.21.67.56.56,0,0,1-.09.19Zm.14-.86a.42.42,0,0,0,.42-.42.43.43,0,0,0-.43-.4.41.41,0,0,0-.4.41A.4.4,0,0,0,36.19,11.83Z"/><path class="cls-1" d="M29.94,11.1l-.15.1-.07-.06a.29.29,0,0,0-.38-.09.34.34,0,0,0-.16.21.31.31,0,0,0,.12.22,2,2,0,0,0,.33.16.51.51,0,0,1,.36.61.57.57,0,0,1-1.12,0l.18-.06a.76.76,0,0,0,.09.18.29.29,0,0,0,.37.13.59.59,0,0,0,.26-.28c.06-.14,0-.25-.17-.32l-.33-.16a.47.47,0,0,1-.32-.47.48.48,0,0,1,.34-.4.52.52,0,0,1,.58.16Z"/><path class="cls-1" d="M38.2,12.45h.73v.18H37.77l.48-.55.38-.46a.35.35,0,0,0,0-.45.49.49,0,0,0-.33-.15c-.18,0-.28.13-.32.3,0,0,0,0,0,0h-.18a.5.5,0,0,1,.28-.48.56.56,0,0,1,.63,0,.46.46,0,0,1,.19.53,1.2,1.2,0,0,1-.22.4C38.55,12.06,38.38,12.23,38.2,12.45Z"/><path class="cls-1" d="M27.25,10.86h.91V11h-.71v.59h.59l0,.2h-.62v.61h.71l0,.2h-.93Z"/><path class="cls-1" d="M40.94,11h-.83C40,11,40,11,40,10.85H41.3l-1.2,1.83-.17-.1Z"/><path class="cls-1" d="M31.05,11.05h-.43v-.19h1.05c0,.1.06.19-.11.19a3,3,0,0,0-.3,0v1.59h-.2Z"/><path class="cls-1" d="M34.28,12.63V11.06c-.11,0-.25,0-.16-.21h.36v1.78Z"/><path class="cls-1" d="M32.6,12.54c-.1.06-.16.13-.21.12a.2.2,0,0,1-.11-.13.16.16,0,0,1,.13-.12S32.51,12.47,32.6,12.54Z"/></g></g></svg>