<?xml version="1.0" encoding="utf-8"?>
<!-- Generator: Adobe Illustrator 26.0.2, SVG Export Plug-In . SVG Version: 6.00 Build 0)  -->
<svg version="1.1" id="Layer_1" xmlns="http://www.w3.org/2000/svg" xmlns:xlink="http://www.w3.org/1999/xlink" x="0px" y="0px"
	 viewBox="0 0 162 224" style="enable-background:new 0 0 162 224;" xml:space="preserve">
<style type="text/css">
	.st0{fill:#FFFFFF;}
</style>
<path class="st0" d="M76.6,5.5c0.8,0.4,1.1,0.7,1.9,0.9c0.7,0.2,1.7,0.7,1.9,0.1c0.3-0.6-0.1-1.4-0.6-2.1C79,3.1,78.6,2.8,77.5,1
	c-0.2-0.4-0.4-0.8-0.8-0.8c0,0-0.1,1.3-0.5,2.1c-0.3,0.7-1.1,1.2-1,1.7S75.8,5.1,76.6,5.5z"/>
<path class="st0" d="M160.2,91.2c-0.9,1.2-1.3,3.6-2.6,5.6c-1.8,2.8-4.4,6.2-5.7,6.2c-0.7,0-0.9-1.6-0.9-1.6s-0.9-2.7,0.6-6.1
	c1.1-2.4,1.7-3.1,3.1-4.9c1.3-1.7,2.1-2.6,3-4.4c0.8-1.6,1-1.9,1.5-4.4c0.1-0.6-0.1-1.9-0.7-1.8c-0.8,0-3,4.8-5.3,7.5
	c-2.2,2.5-6.3,5.7-6.3,5.7s-0.4,0.3-0.4-0.5c-0.1-0.7-0.2-2.8,0.2-4.7c0.4-1.9,1-3.8,2.7-6.7c1.9-3.3,4.3-5.6,5.5-6.8
	c0.5-0.5,2-1.4,1.2-1.9c-0.7-0.4-2.8,1.4-4.4,2.6c-2,1.5-2.7,1.9-4.7,4.3s-2.5,3.4-2.5,3.4s-1.9,3.1-2.4,6.1s-0.5,4.7-0.5,4.7
	s0,2.7,0.3,4.3c0.2,1.7,0.9,4.3,0.9,4.3s1,2.9,1.4,4.7c0.4,1.8,1.1,7.1,1.1,7.1s0.5,3.8,0.2,7.4s-0.6,5.7-1,6.8s-1.5,4-3.3,6
	c-1.7,1.9-2.1,2.2-2.1,2.2s-1.8,1.5-3.3,2.3s-3.7,1.8-4.7,2.1c-1,0.2-2.4,0.3-2.5,0.3h-1.3l-0.4-0.3l-0.2-0.8c0,0-1-3.9-2.2-6.4
	c-1-2.1-3.1-5-3.1-5s-3.6-4.9-6.4-7.6c-3.2-3.2-6.8-5.6-9-7.3c-0.8-0.6-2.6-1.7-2.6-1.7s-7.3-7.3-9.9-13.1c-1.8-4-3-6.9-2.5-11.3
	c0.1-1,0.5-2.9,0.7-2.9L93,85c0.1,0.1,1.3,1.2,2.4,1.6c0.6,0.2,1.7,0.4,1.7,0.4s0.9,0.1,1.4,0.2c0.5,0.2,1.4,0.5,2,0.8
	s1.5,0.9,1.5,0.9l1.7,1.3l1.8,1.4c0,0,1,0.7,1.3,0.8c0.3,0.1,0.5,0.2,0.6,0.2h0.4c0,0,0.4-0.1,0.5-0.5c0.1-0.5-0.5-0.1-1.4-1.1
	c-1-0.9-1.4-1.7-1.4-1.7s-0.2-0.8-1-1.7c-0.8-0.9-1.8-1.7-1.8-1.7s-0.7-0.5-1.7-0.8s-1.3-0.3-1.4-0.7c-0.1-0.4,1.2-0.2,1.2-0.2
	s1.5,0.2,2.7,0.8c1.2,0.6,1.9,1.3,1.9,1.3l0.8,0.7l0.5,0.5l0.5,0.3c0,0,0.5,0.5,0.6-0.2c0.1-0.6-0.1-1.1-0.2-1.2l-0.5-0.5l-2-1.7
	c-0.6-0.6-1-1-1.6-1.4s-1.5-1-2.6-1.4c-1-0.4-1.6-0.3-2.6-0.8c-0.7-0.3-1.3-0.5-1.7-1.1c-0.1-0.1-0.6-0.5,0.3-0.3s1.5,0.5,2.5,0.7
	c1.6,0.4,2.6,0.4,4.1,0.9c0.6,0.2,1.4,0.6,1.4,0.6l1.9,0.8c0,0,2.6,1.4,4.4,1.5s3.3-0.3,3.9-0.6c0.6-0.2,1.7-0.9,2-1.2
	s0.5-0.6,0.5-0.6l0.2-0.5v-0.4c-0.5-0.6-1.5,1-3.1,1.3c-1.7,0.3-1.6,0.5-2.7,0.3c-1.2-0.2-1.9-0.5-2.8-1.4c-1.6-1.5-2.2-2.9-4.3-3.8
	c-0.9-0.4-2.5-0.8-2.5-0.8s-2.2-0.7-3.4-1.4c-0.9-0.5-2.8-0.8-2.2-1.6c0.3-0.4,2.7,1,4.5,1.2c1.3,0.2,2.2,0.1,3.2,0.1
	s2.4-0.3,2.6-0.3c0.2-0.1,1,0,1.7,0.2s1.1,0.5,1.8,0.8c0.7,0.3,1.5,0.8,1.7,0.8l0.4,0.1l0.2-0.2l0.1-0.2l-0.1-0.2l-0.3-0.2l-0.6-0.4
	c0,0-0.9-0.5-1.7-1.3c-0.8-0.8-1.5-1.7-2.7-2.1s-2.6-0.6-2.6-0.6l-1.4-0.1l-0.6-0.1c0,0-1-0.3-0.2-0.5s1.2-0.3,1.4-0.3
	c0.1-0.1,1.5-0.2,2.3,0.1c0.8,0.3,2.1,1,2.2,1c0.1,0.1,1.3,1,2.6,1.3c1.3,0.3,3,0.4,3,0.4l0.8-0.2l0.4-0.1l0.3-0.2l-0.1-0.5
	c0,0,0-0.4-0.6-0.5s-1.8-0.3-2.9-1.1c-1.1-0.8-1.9-1.6-1.9-1.6s-0.8-0.7-2.4-1.1c-1.5-0.4-2-0.4-2-0.4l-0.5-0.2l-1.1-0.5
	c0,0-0.5-0.3-0.9-0.8s-1-1.4,0.7-0.9s2.1,0.8,2.1,0.8s0.9,0.9,1.7,1c0.5,0.1,0.9,0.2,1.2-0.2c0.5-0.5-0.9-1.1-1.9-1.8
	c-0.8-0.5-1.6-1.8-1.6-1.8s-0.6-0.5,0.3-0.3s2.5,1.2,2.5,1.2s0.8,0.4,1.2,0.5c0.3,0.1,1.1,0.6,1.5,0.8c0.3,0.1,1.2,0.3,1.8,0.6
	c0.8,0.5,1.2,1.3,1.6,1.6c0.4,0.3,0.7,0.8,1.2,0.9s0.6,0.3,0.9,0.1c0.3-0.2,0.4-0.3,0.4-0.3s0.1-0.2-0.4-0.5s-1.1-1.1-1.1-1.1
	l-0.2-0.4l-0.1-0.4l-0.5-0.8l-0.9-1.3c0,0-1.4-1.9-2.7-2.6c-1.2-0.7-2.1-1.1-2.1-1.1s-0.6-0.3-0.9-0.5c-0.5-0.4-0.7-0.7-1.1-1.2
	c-0.5-0.6-0.7-1-1.3-1.6c-1.1-1.1-4.5-1.7-3.2-2.5c0.7-0.4,1.6-0.2,2-0.1c0.4,0.1,1.3,0.5,2.2,0.8c0.6,0.2,1,0.2,1.6,0.4
	s1.3,0.3,1.6,0.5c0.3,0.2,0.6,0.6,0.8,0.7c0.1,0.1,0.9,1.4,2.3,2.1s2.1,1.2,3.5,1.3c1.1,0.1,2.9-0.3,2.9-0.3s0.5-0.2,0.1-0.7
	c-0.5-0.5-0.5-0.6-0.9-0.7c-1.6-0.6-2.9-0.4-4.1-1.6c-0.5-0.5-0.7-0.6-1.1-1.4c-0.4-0.8-0.2-1-0.5-1.5c-0.2-0.5-0.7-1.2-0.7-1.2
	s-1.5-1.8-3.1-2.7c-1.7-0.9-2.9-1.8-3.1-2c-0.3-0.2-0.9-1-0.9-1l-0.5-0.8l-0.3-0.6c-0.2-1.1,1.8,0.3,2.9,0.7c1.8,0.6,2.7,1.4,4.5,2
	c1,0.3,1.6,0.3,2.6,0.7c1.7,0.7,2.2,2.4,4,2.6c1,0.1,3,0.5,2.6-0.4c-0.4-1-2.4-1-3.4-2.2c-0.5-0.5-0.5-1-1-1.5
	c-0.8-1-2.7-1.9-2.7-1.9s-0.6-0.5-1.3-1.9c-0.6-1.4-2.1-2.4-4.8-3.7c-1.8-0.9-5.4-1.1-4-2c0.8-0.6,1.5-0.5,2.6-0.2
	c1.1,0.4,1.5,0.9,2.4,1.3c0.9,0.4,1.3,0.5,1.5,0.6s0.9,0.4,1.2,0.4c0.2,0.1,1.7,0.3,2.1,0.4l2,0.5l1.6,0.6c0,0,0.8,0.3,1.3,0.3
	s1.3-0.2,1.3-0.2l0.6-0.4l0.1-0.2c0,0,0.3-0.5-0.5-0.6c-0.7-0.1-1.1-0.1-1.2-0.1l-0.7-0.2l-0.3-0.1c0,0-1.4-1.1-2.6-1.6
	c-1.3-0.5-1.5-0.6-1.5-0.6l-0.5-0.1l-0.6-0.1c0,0-0.5,0-1.3-0.7s-1.1-1.1-1.8-1.8l-0.9-0.9c0,0-0.8-0.6-0.8-1.1
	c0.1-0.8,1.8,0.9,1.8,0.9l1.2,0.8c0,0,1,0.7,2.8,0.8s4-0.5,4-0.5s0.3-0.2,1.3,0.1s1.8,0.9,1.8,0.9l0.8,0.7l1.2,1.3l0.2-0.1
	c0.1-0.1,0.6-0.6-0.3-1.7c-0.9-1.1-2.4-2.1-2.4-2.1s-2-1.2-4-1.6s-2.9-0.4-2.9-0.4s-1.5,0-2.4-1s-1.5-2-1.5-2L109,27
	c0,0-0.5-0.6-1.5-1c-0.9-0.4-1.9-1-1.9-1s-1.5-0.5-1.6-1.2c-0.3-1.3,2.5,0,4,0.3c1.4,0.3,2,0.8,3.4,1.1c1.2,0.3,1.9,0.4,3.2,0.3
	c0.7,0,1.1-0.1,1.8-0.2c0.7,0,1.2-0.1,1.9,0c1,0.2,1.4,0.7,2.4,1.1c0.6,0.3,0.9,0.6,1.6,0.7c0.6,0.1,1.8,0.5,1.6-0.1l-0.3-0.4
	c-0.5-0.7-1.1-0.7-1.7-1.2c-1.3-1-1.9-1.8-3.4-2.5c-1-0.5-1.6-0.7-2.7-0.9c-0.8-0.1-1.4,0.1-2.2-0.1c-0.9-0.3-1.2-0.7-2.1-1.2
	c-1.4-0.8-2.2-1.5-3.7-2.1c-1-0.4-2.7-0.8-2.7-0.8l-0.7-0.1l-0.3-0.1c-1.4-0.5,2.5-1.6,4.3-2.1c0.9-0.2,1.3-0.4,2.2-0.3
	c0.8,0.1,1.7,1.2,2.6,0.7c1.3-0.7-1.5-2.6-2.4-2.9c-1.2-0.5-3.3-0.1-3.3-0.1l-4.6-0.1l-1.3-0.2c0,0-0.8,0-1.4-0.7S97.3,8.4,94.7,8
	C92,7.6,91.2,8,91,7.8c-2.3-3.6-4.7-4.4-6.5-6.1C84,1.2,83.2,0.1,83,0.2s-0.5,1.6-1,2.9c-0.6,1.5-0.2,2.2,0.1,2.8
	c0.4,0.6,0.9,1-0.1,1.6s-2.3,0.4-2.3,0.4s-1.1-0.2-2-0.7C76.8,6.8,74.9,6,74.9,6s-1.8-0.5-3-0.4s-1.3,0.2-2.2,0.3
	c-0.5,0-0.7,0-1.2,0.1c-0.4,0.1-0.9-0.2-0.9,0.3s1,0.5,1.7,0.8s2.3,0.3,2,0.7c-0.4,0.4-1.9,0.5-2,0.4c-0.1,0-1.1-0.2-1.9-0.2
	c-1.3,0.1-1.4,0.1-3.3,1c-0.3,0.1-0.2,0.8,0.4,0.6c0.7-0.2,1.7-0.4,2.8-0.4c1.2,0,1.9,0.4,3.1,0.7c1,0.3,1.1,0.5,2.6,0.7
	c0.3,0,0.9-0.2,0.9,0.2c0,0.2-0.4,0.5-0.4,0.5s-0.9,0.2-0.8,0.5c0.2,0.4,1,0,1.4,0s1,0.1,0.9,0.5l-0.2,0.3c-1.1,0.3-1.7,0.5-2.7,0.9
	c-2.5,1-3.5,2.2-5.9,3.4c-2.3,1.1-6,2.5-6,2.5s-1.1,0.6-2.7,1s-1.7,0.3-2.8,0.5c-1.1,0.1-1.6,0.3-2.5,0.8c-0.6,0.3-0.9,0.6-1.4,1.1
	l-1.4,2.1l-0.8,1.2c-0.2,0.4-0.4,0.6-0.5,1c-0.2,0.5-0.3,0.7-0.4,1.2c-0.3,1.2,0,1.9,0.2,3.1c0.1,0.3,0.1,0.5,0.2,0.8
	c0.1,0.3,0.5,0.6,0.5,0.6l0.4,0.1c0,0,1.4-0.1,2.3-0.3c0.9-0.2,2.2-0.5,2.2-0.5l1.7-0.5l1.1-0.4c0,0,0.7,0,0.8,0.4
	c0.1,0.3-0.2,0.8-0.2,0.8s-0.6,0.3-1.1,0.5s-1.7,0.5-1.8,0.6l-1.3,0.4L51.6,34c0,0-0.2,0.1-0.4,0.4C51,34.7,51,34.7,51,34.9
	c0.2,0.2,0.3,0.4,0.5,0.6c0.4,0.3,0.6,0.5,1.1,0.6c0.7,0.3,1.1,0.2,1.8,0.2c1,0,1.6-0.2,2.5-0.6c0.8-0.5,1.1-0.5,2.2-0.9
	c0.3-0.1,0.9-0.2,1.1-0.2c1.9-0.2,3,0.1,4.9,0.4c1.9,0.3,2.8,0.9,4.7,1.2c2,0.3,3.2,0.9,5.3,0.4c1-0.2,1.6-0.7,2.1,0.3
	c0.5,0.9,0.4,1.4,0.4,1.4s0,0.6-0.7,2.5S74,47.4,74,47.4l-1.5,3c0,0-1.2,2.4-4,5.5s-3,3.3-3,3.3s-1.5,1.1-3,3s-1.5,2.6-2.9,4
	c-0.9,0.9-1.4,1.4-2.5,2.1s-2.4,0.5-5.9,2.9c-3,2.1-4.6,3.8-4.8,3.7c-0.2-0.1-1.2-0.9-1.6-1.1c-0.3-0.2-6.1-4.1-6.1-4.1l-2.4-1.6
	l-1.1-0.7L35,67l-0.6-0.8c0,0-0.9-1.1-2-2c-1.1-1-2.3-1.8-4.1-2.2c-1.7-0.5-2.8-0.8-4.5-0.2c-1.1,0.4-1.7,0.8-2.5,1.6
	c-1,1-1.2,1.8-2,3s-1.6,2.3-2,2.9s-1.2,2.2-1.2,2.2s-2,3.2-3.1,5.3c-1.3,2.3-1.8,3.7-3,5.9c-1.9,3.5-4.6,7.1-5.3,8.7
	s-0.8,1.8-0.8,1.8s-0.2,0.9-0.3,1.5s-0.1,1.6-0.2,2c-0.1,0.5-0.4,1-0.5,1.1s-1.2,2.4-1.6,3.9s-1.3,6.2-0.2,6.8
	c1.1,0.6,9.2-2.9,10.3-6.3c0.7-2.2-2.2-3.3-1.4-5.3c0.3-0.7,0.5-0.8,1-1.5c0.8-1.3,0.5-4,2-6.5c1.1-1.8,3.3-4.1,6.3-7.5
	c1.9-2.1,3.7-5.5,3.7-5.5s0.4-1.2,1.2-1c0.9,0.2,1.7,0.1,1.7,0.1l0.4,0.3l0.8,0.8l1.2,1.8c0,0,2,2.9,2.7,3.7
	c0.7,0.8,1.4,1.4,2.4,2.2c1.1,1,1.5,1.5,2.9,2.6c2,1.6,1.3,2.2-1.3,0.8c-0.9-0.5-2.3-1-3.4-1.3c-1.2-0.3-5.7-1.5-8-1.8
	c-2.2-0.3-2.6-0.2-2.6-0.2s-1.1-0.1-2.4,0.7c-1.3,0.8-2,1.4-2,1.4s-1.5,1.7-1.6,2s-0.8,1.5-0.8,1.5s-0.4,0.6-0.5,1.3
	c-0.2,0.7-0.1,1.4-0.1,1.4l0.1,1.5l0.1,1.4c0,0,0.3,3.5,1,7c0.2,1,0.4,2.6,0.4,2.6l0.5,3.6c0,0,0.3,3.8,0.6,5.1
	c0.3,1.2,0.5,1.3,0.7,2.1c0.4,1.5-0.3,2.2,0.4,4s1.3,1.6,2,2.7c0.5,0.8,0.7,1,1.1,2s1.7,4.3,3.2,6.7c1.6,2.5,3.7,5.6,5.1,5.3
	s2.4-2.5,2.4-2.5s1.6-4.3,0.6-8.5c-1-4.3-5.6-2.3-6.2-5.4c-0.1-0.7,0-1.8,0-1.8s-0.1-1.3-0.3-1.7c-0.2-0.4-1.8-3.4-2.4-5.9
	c-0.5-1.9-0.4-8-0.8-9.7c-1.1-4.4-1.2-4-0.6-4.8c0.7-0.8,1.3-0.6,1.3-0.6l0.9,0.1l0.7,0.3c0,0,0.8,0.5,1.3,0.8
	c0.4,0.3,1.8,1.4,1.8,1.4l3.4,2.2c0,0,1.9,1.1,2.7,1.5s1.5,0.9,1.5,0.9l0.9,0.6l1.5,1.1l0.3,0.3l0.2,0.4c0,0,0.7,1.6,3.7,3.3
	c2.4,1.4,4.5,1,5.4,2.1c0.2,0.2,1.9,2.5,2.7,3.9c1,1.6,2.2,3.5,2.6,4.1s2.9,3.7,2.9,3.7l3.3,3.6l4.3,4l3.9,3.3l2.5,2
	c0,0,2.2,2.1,4.7,3.8c2.4,1.6,2.5,1.8,4.1,2.9c1.2,0.8,2.8,1.9,4.4,3.1c1.6,1.3,3.4,3.7,2.7,4.5c-0.5,0.3-1.4-1-3.1-2.5
	c-1.4-1.2-2.1-1.8-3.5-2.8c-1.8-1.4-2.7-2.1-4.7-3.3c-1-0.6-2.8-1.7-2.9-1.5c-0.7,2.1-0.6,4.1-0.5,6.7c0.1,1.8,0.4,3.6,1,5.9
	c0.5,2.2,1,3.4,1.8,5.5s2.3,5.4,2.3,5.4l2.3,4.6l2.1,3.5l1.1,1.8l0.4,0.6c0,0,0.5,1.2,0,2s-1.1,2.5-2,2.6c-0.9,0.2-3,0.3-3,0.3
	l-11.9-0.2l-6.2-0.5c0,0-0.7-0.4-4.3-0.4c-2.1,0-3.8,0.9-5,1c-1,0.1-5.9-0.3-9.2,1c-3.1,1.3-4.5,1.6-5.6,3.6
	c-0.8,1.5,3.9,3.9,7.8,4.8c6.3,1.4,4.5-1.3,6.9-3c0.3-0.2,0.4-0.4,0.7-0.5c1.6-0.5,2.5,0.8,4.1,0.8c1.8,0,2.8-0.6,4.6-0.9
	c9.1-1.2,23.3,3.1,23.3,3.1s3.5,1.1,5.1,0.8c1.9-0.4,1.5-1.1,2.1-2.2c0.5-0.9,0.3-1.1,0.4-2.1c0-0.6-0.1-0.9-0.2-1.5
	c-0.4-1.7-1.5-4.1-1.5-4.1s-0.8-1.8-1.1-2.7c-0.4-1.3-0.8-2.1-1-3.5c-0.6-3.7-0.5-3.4-0.5-5.5c0-3.8,0.4-5.9,1.4-9.6
	c1.5-5.4,4.3-7.7,6.4-12.9c0.6-1.4,0.6-3.4,1.3-3.6c0.8-0.1,0.7,2.5,0.3,4c-1.3,5.2-4.5,7.4-6,12.7c-1.1,4.1-1.7,6.5-1.4,10.7
	c0.1,2.3,1,5.9,1,5.9s1.2,4,1.8,5.5c0.6,1.5,1.8,4,1.8,4l2.7,4.8l1.4,2.3c0,0,1,0.9,0.5,2.4s-1.5,2.4-2.7,3.7
	c-3.4,4-11.3,9.9-13.3,11.3c-2.8,2.1-2.7,2.7-2.9,3.3c-1.1,3.2-4.3,3.3-7.8,7.1c-0.8,0.8-2.9,3-2.5,4.9c0.2,0.7,8.8,2.2,13.8,0.1
	c3.9-1.7,0.5-3.6,1.6-5.5c0.8-1.4,2.8-1.4,3.7-2.6c1.5-2,0.5-1.9,1.8-3.5c4.3-5.2,7.1-8.2,14.8-12.9c0.7-0.4,2-1,2-1
	s1.1-0.5,1.5-1.1c0.5-0.8,0.4-1.5,0.4-2.4c0-0.6-0.1-0.9-0.1-1.5c0-0.7,0.1-1.1-0.1-1.8c-0.2-1.1-0.9-2-1.3-2.6
	c-0.4-0.5-1.1-1.4-1.5-3.3c-0.5-1.9-0.5-3.5,0.3-5.6s2.6-3.8,2.6-3.8l4.5-3c0,0,3.9-2.8,5.1-3.9c1.3-1.1,3.8-3.4,5.6-6
	c2.1-2.9,3.2-4.7,4.1-8.2c0.3-1.3,0.6-3.3,0.6-3.3s0-1.4,0.8-1.5c0.8-0.1,1,0.2,1,0.2s0.7,0.4,0.9,2.4c0.1,2-0.5,4.3-0.5,4.3
	s-0.6,2.3-0.8,3.7c-0.1,0.9-0.1,1.4-0.1,2.4c0,1.7,0.7,3.1,0.7,3.1s0.4,0.3,0.4-0.4c0-0.8,0.2-2,0.5-3.2c0.3-1,0.5-0.8,1.1-2.5
	c0.8-2.2,0.1-2,0.5-3.3c0.2-0.6,0.7-1.2,1.3-1.2s0.7,0.8,0.7,0.8s0.6,2.6,0.1,5s-2.3,5.7-2.3,5.7l-1.4,2.4c0,0-1,1.7-1.4,2.8
	c-0.4,1.2-0.5,1.7-0.3,2.8c0.3,1.2,1.2,2.8,1.7,2.5c0.4-0.3-0.6-1.3,0.6-3.7c1.2-2.4,2.8-3.9,2.8-3.9s2.2-2.6,3.2-4.6
	c0.9-1.8,1.8-4.7,1.8-4.7s0.7-2.6,0.5-4.8c-0.1-2.1-0.5-3.2-0.5-3.2l-0.9-1.6l-0.5-1.2l0.2-0.7c0.2-0.1,0.9,0.4,1.5,1.2
	s1.2,1.8,1.5,3.2c0.3,1,0.4,1.9,0.4,2.8c0,0.8-0.3,4.1,0.9,6.2c0.5,1,1.7,3.3,1.8,2.3c0.2-2.3-0.8-3.4-0.7-5.5
	c0.1-2.4,0.7-1.8,0.9-3c0.2-1.3,0.5-1.6,0.3-3.3c-0.2-1.6-0.9-3.7-0.9-3.7l-0.7-1.6l-0.3-0.6c0,0,0.2-0.3,0.5-0.3l2.4-0.8
	c0,0,3.1-1.4,4.3-2.4c1.3-0.9,2.8-2.5,2.8-2.5s2-2.5,3-4.3c2.4-4.5,2.4-10.2,2.3-12.8c-0.1-2.5-0.8-5.8-0.8-5.8s-0.8-4-0.6-6.6
	s0.4-3.8,0.4-3.8s-0.1-2.6,2.1-5.4c2.2-2.8,3.2-4.6,3.6-6.7C161.6,93,161,90.1,160.2,91.2L160.2,91.2z M94,73.2
	c-0.3,0-0.7-0.4-0.7-0.4s-0.1-0.1,0.2-0.3c0.3-0.2,0.7-0.1,0.7-0.1l0.3,0.1l0.5,0.7C94.9,73.5,94.3,73.3,94,73.2z M95.2,69.9
	c-0.3-0.1-0.8-0.4-0.8-0.4s-0.1-0.2,0.2-0.4c0.3-0.2,0.8-0.1,0.8-0.1l0.3,0.2c0.1,0.1,0.6,0.6,0.6,0.8C96.3,70.3,95.6,70,95.2,69.9z
	 M96.3,66.5c-0.4-0.1-1-0.5-1-0.5s-0.1-0.2,0.3-0.4s1-0.1,1-0.1l0.4,0.2c0.2,0.2,0.7,0.7,0.7,1C97.6,67,96.7,66.6,96.3,66.5z
	 M97.2,63.4c-0.4-0.1-1-0.5-1-0.5s-0.1-0.2,0.3-0.4s1-0.1,1-0.1l0.4,0.2c0.2,0.2,0.7,0.7,0.7,1C98.5,63.8,97.6,63.4,97.2,63.4z
	 M98.1,59.7c-0.5-0.1-1.1-0.6-1.1-0.6s-0.1-0.2,0.3-0.5s1.1-0.1,1.1-0.1l0.4,0.2c0.2,0.2,0.8,0.8,0.8,1.1
	C99.6,60.2,98.5,59.7,98.1,59.7z M98.7,55.7c-0.6-0.1-1.4-0.7-1.4-0.7s-0.2-0.3,0.4-0.6c0.5-0.3,1.3-0.2,1.3-0.2l0.5,0.3
	c0.2,0.2,0.9,1,1,1.4C100.5,56.3,99.3,55.8,98.7,55.7z M99.1,51.7c-0.7-0.1-1.7-0.9-1.7-0.9s-0.2-0.3,0.4-0.7s1.6-0.2,1.6-0.2
	s0.3,0.1,0.6,0.3c0.3,0.3,1.1,1.2,1.2,1.7S99.8,51.8,99.1,51.7z M99.7,47.1c-0.8-0.1-1.9-1-1.9-1s-0.2-0.4,0.5-0.8
	c0.7-0.5,1.8-0.2,1.8-0.2s0.4,0.1,0.7,0.4c0.3,0.3,1.3,1.4,1.4,1.9C102.2,48,100.5,47.2,99.7,47.1z M99.3,28.5
	c-0.6-0.1-1.4-0.7-1.4-0.7s-0.2-0.2,0.4-0.5s1.4-0.1,1.4-0.1s0.3,0.1,0.5,0.3c0.2,0.2,1,0.9,1,1.3C101.2,29.1,99.9,28.6,99.3,28.5z
	 M101.5,33c0.1,0.4-1.3-0.1-2-0.2C98.9,32.7,98,32,98,32s-0.2-0.3,0.4-0.6c0.6-0.4,1.4-0.2,1.4-0.2s0.3,0.1,0.6,0.3
	C100.7,31.8,101.4,32.6,101.5,33z M98.6,40.4c0.6-0.4,1.6-0.2,1.6-0.2s0.3,0.1,0.6,0.3c0.3,0.3,1.1,1.2,1.2,1.7s-1.4-0.1-2.1-0.3
	c-0.7-0.1-1.7-0.9-1.7-0.9S98,40.8,98.6,40.4z M99.9,37c-0.7-0.1-1.7-0.9-1.7-0.9s-0.2-0.3,0.4-0.7s1.6-0.2,1.6-0.2s0.3,0.1,0.6,0.3
	c0.3,0.3,1.1,1.2,1.2,1.7C102.1,37.8,100.6,37.2,99.9,37z M101.2,22c0.8,0.2,1,0.7,0.6,0.7c-0.4,0.1-0.6,0.1-0.9,0.1
	c-0.9,0-0.8-0.4-2,0.2s-0.3,0.3-2,0.9c-1.6,0.6-1.2-1-1.2-1s0.1-0.3,0.3-1.1s1.2,0,1.9,0C99.2,21.8,100.3,21.8,101.2,22z M96.7,15.8
	l0.5,0.3c0.2,0.2,0.9,1,1,1.4s-1.2-0.1-1.7-0.2c-0.6-0.1-1.4-0.7-1.4-0.7s-0.2-0.3,0.4-0.6C96,15.6,96.7,15.8,96.7,15.8z M93.1,11
	c0.5-0.3,1.3-0.2,1.3-0.2l0.5,0.3c0.2,0.2,0.9,1,1,1.4s-1.2-0.1-1.7-0.2c-0.6-0.1-1.4-0.7-1.4-0.7S92.6,11.3,93.1,11z M92.1,75.8
	c0.3-0.2,0.7-0.1,0.7-0.1l0.3,0.1l0.5,0.7c0,0.2-0.6-0.1-0.9-0.1S92,76,92,76S91.8,75.9,92.1,75.8z M52,28.2
	c-0.3,0.2-0.5,0.3-0.9,0.6c-0.5,0.4-1,1.4-1.3,1.1c-0.4-0.3-0.2-1.4-0.2-1.4s0.3-0.8,0.7-1.6c0.5-0.8,1.1-0.8,1.1-0.8
	c0.6,0,1.7,0.4,1.7,1.3C53.2,28.3,52.5,27.9,52,28.2z M60.2,31.3c0,0-0.4,0.1-0.5-0.6s0.5-0.8,0.5-0.8s1.2-0.6,1.2,0.2
	C61.5,30.8,60.2,31.3,60.2,31.3z M70.9,17.7c0,0-1.3,2.1-3.1,2.9c-1.8,0.8-3,1.2-6.4,1.5c-0.5,0-0.3-0.3-0.3-0.3s3.9-1.1,6.1-2.3
	c1.2-0.7,2.6-1.6,3-2C71.6,16.3,70.9,17.7,70.9,17.7z M3.7,104.3c0,0.5-0.6,1.4-0.8,1.4c-0.2,0-0.6-0.9-0.5-1.4s0.2-1.9,1-1.7
	C4,102.7,3.7,103.8,3.7,104.3z M6.3,93c0,0-0.9,1.9-1.2,1.1c-0.3-0.7,0.3-2,0.3-2c0.8-0.7,1.1-1.7,1.5-1.3C7.2,91.2,6.3,93,6.3,93z
	 M18.7,73.5c-0.9,1-3.7,6.3-4.3,5.4c-0.6-0.7,2.7-5.7,3.4-6.7c0.7-1.1,1.3-0.9,1.3-0.9l0.2,0.2C19.2,71.5,19.6,72.5,18.7,73.5z
	 M26.2,65.6c0,0-2,0.4-1.7-0.3c0.4-0.7,1.8-1,1.8-1c1.1,0.2,1.3,0.3,1.2,0.8C27.6,65.6,26.2,65.6,26.2,65.6z M34.3,79.6
	c-0.9,0.9-1.2-0.3-2.5-1.8c-1.3-1.4-1-2.6-1-2.6H31l0.2,0.1l0.5,0.2l0.3,0.3l1,1C33.4,77.4,34.5,79.4,34.3,79.6z M18.8,109.5
	c-0.3,0-0.6-0.6-0.6-0.6s-0.8-1.2-1.1-2.1c-0.3-0.8-0.4-2.1-0.4-2.1s-0.2-1.7-0.2-2.3c0.1-0.8,0.1-1.5,0.2-1.9s0.5-0.3,0.5-0.3
	c0.6,0,0.6,0.5,0.6,0.5v0.3c0,0,0,1.8,0.1,3.2c0,0.4,1.1,4.9,1.1,4.9S19.2,109.5,18.8,109.5z M18.6,88.5c-0.7,1.1-1.2,1.1-1.2,1.1
	c0-0.1-0.2-0.5,0.4-1.7s1.2-1.1,1.2-1.1l0.2,0.2C19.2,87,19.3,87.4,18.6,88.5z M25.7,130.4c0.2-0.4,1.5,0.6,1.5,0.6c0.5,0.1,1,1,1,1
	s0.2,0.7-0.4,0.9c-0.6,0.3-1-0.3-1-0.3S25.5,130.8,25.7,130.4z M35.1,99.8c-1.4-0.3-4.4-2.6-5.6-3.2s-3.2-0.8-2.3-1.6
	c0.1-0.1,0.2-0.3,0.4-0.3s1.1,0.3,1.1,0.3l2.2,0.9c0.1,0,1.2,0.5,2.1,1c0.8,0.5,2.2,1.4,2.2,1.4l0.6,0.5
	C35.8,99,36.5,100.1,35.1,99.8z M47.3,79.9c0,0-1.7,2.3-2.7,3.7c-1.3,1.9-2.9,4.8-3.2,4.5s1.4-3.5,2.3-5.2c1-2.1,2.5-3.2,3.1-3.4
	C48.1,78.9,47.3,79.9,47.3,79.9z M41.9,180c0,0,0,0.4-0.7,0.9s-1,0.2-1.1,0.2s-0.8-0.4-0.8-0.8c0.1-0.4,1.2-0.7,1.2-0.7
	C42.4,179.5,41.9,180,41.9,180L41.9,180z M57.4,179.4c-0.7-0.1-0.8-0.3-0.7-0.4c0-0.1,0.2-0.3,1-0.3s0.8,0.4,0.8,0.4
	C58.5,179.4,58.2,179.5,57.4,179.4z M75.2,180.4c-1.5,0.4-2.1,0.2-3.4,0.3c-1.1,0.1-1.6,0.2-2.7,0.2c-1.9,0-2.1,0.1-4.8-0.7
	c-0.5-0.2-1.1-0.8-0.9-1c0.2-0.3,0.6-0.2,0.6-0.2s3.4,0.6,5.6,0.7c1.6,0.1,2.4,0.2,4,0.1c0.9,0,0.4-0.1,1.8-0.1
	C75.9,179.6,75.6,180.3,75.2,180.4z M84.7,177.6c-0.1,0.1-0.7,0.3-1.2,0.4c-0.6,0.1-0.3-0.4-0.3-0.4s0.4-0.6,0.9-0.9
	c0.6-0.3,0.9,0,0.9,0C85.2,177.1,84.8,177.5,84.7,177.6z M92.1,158.4c-0.7,1.5-0.9,2-1,3.4c-0.2,1.5,0.7,5.7-0.7,4.1
	c-0.5-0.7-1-4-0.6-5.6C90.5,156.7,93.4,155.7,92.1,158.4z M71.9,219.5c-0.6,0.4,0.6,1.6-1.3,1.5c-1.1-0.1-0.5-1.1-0.4-1.2l0.7-1
	c0.5-0.7,0.8-0.8,1.3-1.1s0.9,0.5,0.9,0.5s0.2,0.3,0.2,0.7C73.3,219.2,72.4,219.1,71.9,219.5z M82.4,209.4l-0.9,0.7
	c-0.1,0-0.7,0.5-0.9,0.2c-0.2-0.3,0.1-0.7,0.1-0.8s0.6-0.8,1.1-1c0.5-0.3,0.8,0,0.8,0C82.9,209.2,82.4,209.4,82.4,209.4L82.4,209.4z
	 M87.1,34.2c0,0-0.4,1.3-1.2,1.6c-1,0.3-4.8,0.4-4.9,0.1c-0.1-0.3,4.4-0.7,6.1-2.4C87.5,33.1,87.1,34.2,87.1,34.2z M85.7,30.9
	c0.3-0.5,0.1,0.8,0.1,0.8s-0.3,1.3-1,1.7c-0.9,0.5-3.1,1.1-3.3,0.8C81.5,34,84.4,33.1,85.7,30.9z M79.5,15.9c0,0,0.4,0,1,0.3
	c0.6,0.4,1,1.6,1,1.6s0.1,0.2-0.4,0.2c-0.3,0-0.3-0.5-0.6-0.7c-0.4-0.3-0.7-0.4-1.2-0.6s-1.2,0.1-1.3-0.4
	C78,15.7,79.5,15.9,79.5,15.9z M74.9,19.2c0,0,0.2-0.6,1.1-1.1c0.8-0.5,1.9-0.5,1.9-0.5s0.6,0,1.3,0.5c0.7,0.5,1.3,2.2,1.3,2.2
	s0.2,1.1-0.3,1.5s-1.3-0.3-1.7-0.9c-0.5-0.6-0.8-0.8-1.5-1c-0.8-0.3-2,0.6-2.2,0C74.8,19.7,74.9,19.2,74.9,19.2z M74.6,33
	c-0.6,0.1-0.2-0.5-0.2-0.5s1.7-0.7,2.8-1.3c1.8-0.9,5.2-4.5,4.3-2.8c-0.4,0.8-1.6,1.8-1.6,1.8s-1.4,2-1.7,2.3
	C76.9,33.5,75.3,32.9,74.6,33L74.6,33z M60.5,71.8l0.1-0.2c0,0,3-2,7.7-1.4c2.8,0.4,5.5,2.9,5.1,3.2c-0.4,0.3-1,0-1.2,0l-1-0.5
	l-1.5-0.4c0,0-2.7-0.6-4.7-0.5s-3.8,0.8-3.8,0.8s-0.8,0.4-1-0.1C60.1,72.1,60.5,71.8,60.5,71.8z M67.9,128.1
	C61,122.8,52.6,112,53.6,111c0.9-0.8,4.3,4.2,9.4,9.7c5.4,5.8,11.7,11.3,11.9,12C75.3,133.9,70.5,130.1,67.9,128.1L67.9,128.1z
	 M83.6,53.4c-2.9,5-6.9,8.8-6.9,8.8c-1.4,1-0.5-0.8-0.5-0.8s3.9-5.4,5.7-9.2c1.3-2.7,2.1-6.3,2.7-7C86,43.5,85.3,50.4,83.6,53.4z
	 M91.6,108.2c-3-3.6-5.2-7.5-5.9-12.4c-0.2-1.1-0.2-2.7,0.8-2.5c0.9,0.1,0.8,1.8,0.8,2.2c0.3,2.9,1.5,5.8,3.7,9.3
	c3.1,4.9,8.1,8.7,7.9,9C98.4,114.3,93.4,110.4,91.6,108.2z M92.5,201.7c-1.7,1.6-4.6,3.8-4.6,3.8h-0.4V205l0.1-0.2l0.2-0.3l0.2-0.3
	l0.2-0.3l0.6-0.7l1.4-1.3l1.4-1.3l2.2-2.2c0,0,0.8-0.9,1.1-1.1c0.3-0.2,0.5-0.4,0.8-0.6c0.4-0.2,0.9-0.5,1.1-0.3v0.4
	C96.9,197.1,94.3,200,92.5,201.7L92.5,201.7z M98.7,127.7c-1.3,0.9-1.8,0.8-2.6,1.7c-0.9,1.1-1.2,4.8-2.1,3.3s-0.3-3.6,1.2-5.2
	C97,125.4,100.9,126.1,98.7,127.7z M103.4,193.5c0.6-0.2,0.9-0.1,0.9-0.1l0.2,0.4c0,0.1-0.8,1.2-1.2,1.2c-0.5-0.1-0.3-0.7-0.3-0.7
	S102.8,193.7,103.4,193.5L103.4,193.5z M120.5,152.8c-0.9-0.6,0.5-2.4,0.5-3.9c0-1.2-0.2-2.1-0.2-3.1s1-1.3,1-1.3
	c0.2,0,0.6,0.2,1.1,1.2S122.1,153.8,120.5,152.8z M151.1,124.2c-0.2,4.2-0.4,7.2-2.9,10.4c-3,3.9-8.2,7.9-7.1,4.7
	c0.7-1.9,5.3-4.3,7.1-9.6c1-3.2,1.2-6.2,1.2-6.2l-0.2-6.1c0,0-0.1-0.5-0.1-1.2c0.3-0.8,0.7-0.2,0.7-0.2l0.2,0.3
	C150,116.5,151.2,121.2,151.1,124.2z"/>
</svg>
