<svg xmlns="http://www.w3.org/2000/svg" viewBox="0 0 58.79 21.97"><defs><style>.cls-1{fill:#fff;}</style></defs><g id="Layer_2" data-name="Layer 2"><g id="Layer_1-2" data-name="Layer 1"><g id="uLvfU9"><path class="cls-1" d="M17.69,0v.3q0,10.61,0,21.21c0,.45,0,.45-.46.45H.48C0,22,0,22,0,21.5V.53C0-.06,0,0,.54,0H17.69ZM.31,11h0c0,3.44,0,6.89,0,10.33,0,.26.08.35.34.35H17c.39,0,.41,0,.41-.38V.76c0-.44,0-.45-.47-.45C11.55.3,6.16.31.76.31.32.31.31.33.31.77Z"/><path class="cls-1" d="M55.83,6.7c-.55-1-.51-1.6.09-1.94a1.17,1.17,0,0,1,1.58.33.9.9,0,0,1,0,1,6.16,6.16,0,0,1-.84.74l1.12,1c.12-.21.27-.47.41-.74s.09-.26.28-.18.13.2.07.32-.26.5-.41.74a.31.31,0,0,0,.06.47,4.67,4.67,0,0,1,.44.45c.05.08.1.23.06.29s-.24.11-.35,0l-.56-.63c-.21.17-.35.3-.5.41a1.77,1.77,0,0,1-1.63.28,1.17,1.17,0,0,1-.87-.94,1.21,1.21,0,0,1,.49-1.27A6.19,6.19,0,0,1,55.83,6.7ZM56.17,9a1.54,1.54,0,0,0,1.16-.56c.05,0,0-.22,0-.28-.33-.37-.67-.72-1-1.06A.38.38,0,0,0,56.05,7a1.16,1.16,0,0,0-.92,1.08A1,1,0,0,0,56.17,9ZM56.55,5a.72.72,0,0,0-.76.7c0,.31.36.87.58.88a1.06,1.06,0,0,0,.89-.89A.67.67,0,0,0,56.55,5Z"/><path class="cls-1" d="M30.92,17a.47.47,0,0,1-.61-.16q-.57-.77-1.17-1.5a.57.57,0,0,0-.34-.18c-.32,0-.65,0-1,0s-.28.09-.28.29c0,.43,0,.86,0,1.3,0,.14,0,.32-.2.27s-.17-.18-.17-.27c0-1.36,0-2.71,0-4.07,0-.2.08-.27.27-.26.59,0,1.18,0,1.77,0a2.65,2.65,0,0,1,.68.14,1.23,1.23,0,0,1,.87,1.17A1.21,1.21,0,0,1,30,15l-.47.17ZM27.56,13.8h0v.75c0,.17.06.27.24.27.5,0,1,0,1.51,0a1.16,1.16,0,0,0,.89-.45.91.91,0,0,0-.63-1.46,13.93,13.93,0,0,0-1.83-.07c-.06,0-.16.14-.17.22C27.55,13.29,27.56,13.55,27.56,13.8Z"/><path class="cls-1" d="M45.54,7.38,47,9.23a.42.42,0,0,1-.58-.12c-.35-.46-.7-.9-1-1.37a.68.68,0,0,0-.65-.33,6.26,6.26,0,0,1-.75,0c-.25,0-.35.06-.34.31,0,.43,0,.85,0,1.27,0,.14,0,.32-.2.29A.37.37,0,0,1,43.23,9c0-1.34,0-2.69,0-4,0-.23.08-.31.29-.31.6,0,1.19,0,1.78,0a2.53,2.53,0,0,1,.76.17A1.17,1.17,0,0,1,46.82,6a1.2,1.2,0,0,1-.73,1.15C45.93,7.23,45.76,7.28,45.54,7.38ZM43.6,6c0,.25,0,.5,0,.75,0,.08.1.24.16.23a12.11,12.11,0,0,0,1.91-.08.88.88,0,0,0,.74-1,.88.88,0,0,0-.87-.84,16.4,16.4,0,0,0-1.72,0,.34.34,0,0,0-.22.24A6.23,6.23,0,0,0,43.6,6Z"/><path class="cls-1" d="M53.44,13c-.12.25-.23.28-.44.14a1.92,1.92,0,0,0-3,.77,2,2,0,0,0,1.33,2.87,2.16,2.16,0,0,0,1.69-.35.44.44,0,0,0,.17-.29,7.3,7.3,0,0,0,0-.81.27.27,0,0,0-.3-.3c-.32,0-.64,0-1,0-.09,0-.17-.12-.25-.18.09-.06.17-.16.26-.16.45,0,.9,0,1.36,0a.23.23,0,0,1,.27.27c0,.45,0,.9,0,1.36a.41.41,0,0,1-.13.27,2.44,2.44,0,0,1-3.83-.8,2.6,2.6,0,0,1,.73-2.92,2.46,2.46,0,0,1,2.85,0Z"/><path class="cls-1" d="M55.46,14.78c0-.67,0-1.34,0-2,0-.22.09-.32.32-.32h2.71c.15,0,.32,0,.27.22s-.18.15-.28.16H56.18c-.25,0-.36.08-.35.35a8.85,8.85,0,0,1,0,1c0,.26.09.36.35.36H58a.75.75,0,0,1,.3,0c.08,0,.14.12.21.18s-.15.17-.22.17h-2c-.4,0-.42,0-.42.43s0,.66,0,1,.09.37.37.37c.71,0,1.42,0,2.14,0a.58.58,0,0,1,.23,0,1,1,0,0,1,.22.19c-.07.06-.14.15-.21.16-.35,0-.7,0-1,0-.55,0-1.11,0-1.66,0-.4,0-.41,0-.41-.4v-1.9Z"/><path class="cls-1" d="M32.55,14.76c0-.66,0-1.33,0-2,0-.23.07-.33.31-.33h2.71a.38.38,0,0,1,.27.18c0,.21-.14.2-.28.2H33.27c-.25,0-.35.07-.34.33a8.68,8.68,0,0,1,0,1c0,.29.1.4.39.39.59,0,1.18,0,1.77,0a.6.6,0,0,1,.27,0c.08,0,.13.13.2.2s-.14.15-.21.15H33.78c-1,0-.84-.13-.84.84,0,.2,0,.41,0,.61s.09.34.34.34h2.14a.66.66,0,0,1,.2,0,1.59,1.59,0,0,1,.27.18,2,2,0,0,1-.25.18.65.65,0,0,1-.24,0c-.83,0-1.65,0-2.47,0-.28,0-.37-.1-.37-.37,0-.66,0-1.31,0-2Z"/><path class="cls-1" d="M22.13,14.75c0-.65,0-1.3,0-1.95,0-.26.09-.37.35-.36.58,0,1.16,0,1.74.05a1.36,1.36,0,0,1,1.31,1.56,1.46,1.46,0,0,1-1.4,1.29c-.42,0-.85,0-1.27,0-.25,0-.36.09-.35.35s0,.66,0,1c0,.14.06.34-.18.34s-.19-.21-.19-.35c0-.33,0-.67,0-1v-1Zm.39-.84h0c0,.28,0,.57,0,.85,0,.08.1.23.16.23a3.92,3.92,0,0,0,1.89-.17.91.91,0,0,0,.56-.82,1,1,0,0,0-.92-1.12,10.27,10.27,0,0,0-1.47-.05c-.17,0-.24.11-.24.27S22.52,13.64,22.52,13.91Z"/><path class="cls-1" d="M37.55,16.15l.57.38a2,2,0,0,0,1.4.22.92.92,0,0,0,.79-.79c0-.39-.17-.68-.64-.84-.25-.09-.52-.14-.78-.21a4.61,4.61,0,0,1-.63-.2,1.06,1.06,0,0,1-.77-1.15,1.16,1.16,0,0,1,.84-1.07,2.23,2.23,0,0,1,2,.32.31.31,0,0,1,.1.28c-.06.15-.18.14-.32,0a1.89,1.89,0,0,0-1.56-.33.79.79,0,0,0-.69.85.78.78,0,0,0,.29.54,4.52,4.52,0,0,0,1,.37c.3.1.6.17.89.29a1,1,0,0,1,.66,1,1.15,1.15,0,0,1-.64,1.08,2.44,2.44,0,0,1-2.63-.41C37.29,16.36,37.3,16.33,37.55,16.15Z"/><path class="cls-1" d="M30.05,6.25c0-.44,0-.88,0-1.33,0-.08.11-.16.17-.24.08.07.21.15.21.22,0,1,0,1.93-.05,2.89A1.58,1.58,0,0,1,29.2,9.27a2,2,0,0,1-2-.44,1.75,1.75,0,0,1-.51-1.23c0-.89,0-1.79,0-2.68,0-.08.12-.16.18-.24.07.08.18.16.19.24,0,.77,0,1.53,0,2.29,0,.12,0,.25,0,.37a1.45,1.45,0,0,0,1,1.35,1.49,1.49,0,0,0,1.75-.51A2.32,2.32,0,0,0,30,7.48a10.08,10.08,0,0,0,0-1.23Z"/><path class="cls-1" d="M40.93,6.24c0-.45,0-.9,0-1.35,0-.07.12-.14.18-.21s.18.14.18.21c0,1,0,2,0,3a1.64,1.64,0,0,1-1.63,1.52,1.76,1.76,0,0,1-2-1.25,2.34,2.34,0,0,1-.12-.65c0-.83,0-1.66,0-2.5a.4.4,0,0,1,.15-.27c.2-.07.23.08.23.24V7.07a2.22,2.22,0,0,0,.3,1.33A1.52,1.52,0,0,0,39.85,9a1.2,1.2,0,0,0,1-1.11c.05-.53,0-1.06,0-1.59Z"/><path class="cls-1" d="M34,7.22,33,8.43l-.55.71c-.13.17-.28.21-.52.08l.81-1.05c.27-.34.53-.68.8-1a.3.3,0,0,0,0-.45L32.18,5,32,4.73a.41.41,0,0,1,.57.13c.37.5.75,1,1.14,1.48l.26.31.76-1,.64-.84c.16-.2.22-.21.53-.13a.88.88,0,0,1-.12.19c-.46.6-.92,1.19-1.4,1.78a.35.35,0,0,0,0,.5c.48.58.94,1.18,1.4,1.77a2.93,2.93,0,0,1,.18.26.35.35,0,0,1-.53-.11L34.14,7.42A2.45,2.45,0,0,0,34,7.22Z"/><path class="cls-1" d="M48,4.73a.45.45,0,0,1,.62.2l1.31,1.88.21.28c.13-.18.24-.32.34-.47.41-.58.83-1.17,1.23-1.75a.41.41,0,0,1,.55-.16c-.09.15-.16.27-.24.39-.52.72-1,1.43-1.54,2.15a1,1,0,0,0-.16.47c0,.41,0,.82,0,1.23,0,.13.08.34-.17.34s-.2-.2-.21-.35c0-.39,0-.79,0-1.18a1.12,1.12,0,0,0-.18-.55c-.51-.74-1-1.48-1.56-2.21Z"/><path class="cls-1" d="M43.59,14.94c0-.59,0-1.18,0-1.77,0-.24-.06-.35-.32-.34s-.66,0-1,0c-.09,0-.18-.11-.26-.17.08-.07.17-.2.26-.2h3c.09,0,.17.13.26.2-.09.06-.19.17-.29.18a8.17,8.17,0,0,1-1,0c-.25,0-.33.09-.33.33,0,1.16,0,2.33,0,3.49,0,.06,0,.13,0,.18a1.37,1.37,0,0,1-.18.24c-.06-.08-.19-.15-.19-.23,0-.63,0-1.27,0-1.9Z"/><path class="cls-1" d="M22.13,7V5c0-.14,0-.3.2-.3s.18.18.18.31c0,1.18,0,2.35,0,3.52,0,.39,0,.41.41.41.65,0,1.3,0,1.95,0,.11,0,.29.1.3.18s-.15.19-.29.19c-.81,0-1.62,0-2.44,0-.25,0-.32-.11-.32-.34,0-.67,0-1.33,0-2Z"/><path class="cls-1" d="M47.65,14.78v2c0,.13,0,.3-.2.29s-.18-.17-.18-.3c0-1.34,0-2.67,0-4,0-.15,0-.3.2-.3s.19.17.19.31Z"/><path class="cls-1" d="M4.75,11V5.2a1,1,0,0,1,0-.3c0-.07.11-.16.16-.16a.34.34,0,0,1,.22.14,1.43,1.43,0,0,1,0,.36V16.3c0,.53,0,.53.52.53h6.75a1,1,0,0,1,.3,0c.09,0,.21.12.23.2s-.09.22-.24.22H11.14c-2,0-4,0-6,0-.29,0-.38-.08-.37-.37,0-2,0-3.94,0-5.91Z"/><path class="cls-1" d="M8.29,5.15H6.21c-.15,0-.32,0-.33-.2s.15-.22.31-.22c1.45,0,2.91,0,4.36,0a3.86,3.86,0,0,1,2.09.78,3.09,3.09,0,0,1-.36,5,4.71,4.71,0,0,1-2.16.58c-1.31,0-2.63,0-3.94,0-.14,0-.29,0-.3-.2s.14-.23.3-.23c1.3,0,2.61,0,3.91,0a3.48,3.48,0,0,0,2.45-.86,2.63,2.63,0,0,0-1-4.38A7,7,0,0,0,10,5.16c-.56,0-1.12,0-1.68,0Z"/></g></g></g></svg>