<?xml version="1.0" encoding="utf-8"?>
<!-- Generator: Adobe Illustrator 26.0.2, SVG Export Plug-In . SVG Version: 6.00 Build 0)  -->
<svg version="1.1" id="Layer_1" xmlns="http://www.w3.org/2000/svg" xmlns:xlink="http://www.w3.org/1999/xlink" x="0px" y="0px"
	 viewBox="0 0 140 150.4" style="enable-background:new 0 0 140 150.4;" xml:space="preserve">
<style type="text/css">
	.st0{fill:#FFFFFF;}
</style>
<path class="st0" d="M34,18.7c-0.1,0.3-0.1,0.6-0.1,0.8c0,5,0,10,0,15.1c0,0.7,0.2,1.2,0.8,1.7c5.4,4.7,10.8,9.3,16.2,14
	c3.9,3.4,7.9,6.8,11.8,10.2c4.3,3.7,8.5,7.4,12.8,11.1c4.4,3.8,8.7,7.5,13.1,11.3c3.4,2.9,6.8,5.9,10.2,8.8c3.5,3,6.9,6,10.4,9
	c2.7,2.4,5.4,4.7,8.2,7.1c2.2,1.9,4.3,3.8,6.5,5.6c0.9,0.7,1,1.5,0.9,2.5c0,0.4-0.2,0.5-0.5,0.2c-0.4-0.3-0.8-0.7-1.2-1
	c-5.9-5.1-11.7-10.2-17.6-15.2c-3.7-3.2-7.4-6.3-11-9.5c-2.5-2.2-5.1-4.4-7.6-6.6c-4-3.4-7.9-6.8-11.9-10.3c-3.4-3-6.8-5.9-10.3-8.9
	c-3.3-2.8-6.6-5.6-9.9-8.5c-2.6-2.2-5.1-4.4-7.7-6.6c-4.2-3.6-8.3-7.2-12.5-10.8c-0.1-0.1-0.2-0.2-0.3-0.2c-0.2-0.1-0.4,0-0.4,0.2
	c0,0.2,0,0.5,0,0.7c0,6.7,0,13.5,0,20.2c0,18.3,0,36.5,0,54.8c0,0.2,0,0.5,0,0.7c0,0.4,0.1,0.8-0.3,1c-0.4,0.2-1,0.1-1.4,0
	c-0.2,0-0.3-0.2-0.3-0.4c0-0.2,0-0.5,0-0.7c0-33.3,0-66.5,0-99.8c0-0.3-0.2-0.7,0.2-0.8c0.3-0.1,0.5,0.2,0.7,0.4
	c3.6,3.1,7.2,6.2,10.8,9.4c3.5,3,7,6,10.4,9.1c3.8,3.3,7.7,6.6,11.5,9.9c3.8,3.3,7.7,6.6,11.5,10c4.7,4,9.3,8,14,12.1
	c4.3,3.7,8.6,7.5,13,11.2c0.8,0.7,1.7,1.4,2.5,2.1c0.3-0.1,0.2-0.3,0.2-0.5c0-0.2,0-0.5,0-0.7c0-25.2,0-50.3,0-75.5c0-0.3,0-0.7,0-1
	c0-0.4,0.2-0.6,0.6-0.6c0.1,0,0.1,0,0.2,0c1.1-0.1,1.2,0.1,1.2,1.2c0,4.5,0,9,0,13.5c0,21.3,0,42.7,0,64.1c0,0.3,0,0.5,0,0.8
	c0,0.5,0.2,0.9,0.6,1.2c4.3,3.7,8.5,7.3,12.7,11c0.2,0.2,0.3,0.4,0.6,0.4c0.2-0.4,0.1-0.8,0.1-1.1c0-22.1,0-44.2,0-66.3
	c0-7.7,0-15.4,0-23.1c0-0.1,0-0.3,0-0.4c0-0.4-0.2-0.8,0.2-1.1c0.4-0.2,0.9-0.1,1.4-0.1c0.3,0,0.4,0.2,0.4,0.5c0,0.3,0,0.5,0,0.8
	c0,31.3,0,62.6,0,93.9c0,0.4,0.2,0.9-0.2,1c-0.3,0.1-0.6-0.3-0.9-0.5c-3.9-3.3-7.8-6.7-11.6-10.1c-2.7-2.4-5.5-4.8-8.2-7.1
	c-2.6-2.2-5.2-4.4-7.7-6.7c-2.7-2.4-5.4-4.7-8.1-7.1C84,61.8,80.1,58.4,76.1,55c-3.4-3-6.8-5.9-10.2-8.9c-4.3-3.7-8.7-7.5-13-11.2
	c-3.4-3-6.9-6-10.3-9c-2.7-2.3-5.4-4.6-8-6.9C34.4,18.8,34.3,18.7,34,18.7L34,18.7z"/>
<path class="st0" d="M15.8,58.3c0-18.8,0-37.6,0-56.4c0-0.4,0-0.7,0-1.1c0-0.2,0.2-0.3,0.4-0.2c0.5,0.4,0.9,0.8,1.4,1.2
	c0.2,0.2,0.2,0.4,0.2,0.6c0,0.3,0,0.6,0,0.9c0,37.2,0,74.3,0,111.5c0,0,0,0.1,0,0.1c0,1.4,0.1,1.4-1.6,1.4c-0.3,0-0.5-0.2-0.5-0.5
	c0-0.4,0-0.7,0-1.1C15.8,95.9,15.8,77.1,15.8,58.3L15.8,58.3z"/>
<path class="st0" d="M78.7,137.8c-0.2,0.3-0.1,0.6-0.1,0.9c0,3.2,0,6.4,0,9.6c0,0.2,0,0.4,0,0.7c0,0.7-0.2,0.9-0.9,0.9
	c-0.2,0-0.4,0-0.6,0c-0.4,0-0.6-0.3-0.7-0.7c0-0.2,0-0.4,0-0.7c0-4.4,0-8.9,0-13.3c0-0.1,0-0.2,0-0.3c0-0.3,0-0.8,0.4-0.9
	c0.5-0.2,0.9-0.1,1.3,0.2c0.7,0.7,1.3,1.4,2,2.2c1.7,1.9,3.5,3.8,5.2,5.7c1.1,1.2,2.3,2.5,3.4,3.7c0.1,0.1,0.2,0.2,0.4,0.2
	c0.2-0.2,0.1-0.6,0.1-0.8c0-3.1,0-6.2,0-9.3c0-0.2,0-0.4,0-0.7c0-0.9,0.2-1.1,1.1-1.1c0.8,0,1,0.2,1,1c0,0.9,0,1.9,0,2.8
	c0,3.6,0,7.2,0,10.8c0,0.3,0,0.5,0,0.8c0,0.3-0.1,0.5-0.4,0.7c-0.3,0.1-0.6,0.1-0.9-0.2c-0.4-0.4-0.8-0.8-1.1-1.2
	c-1.8-1.9-3.5-3.9-5.3-5.8c-1.5-1.6-3-3.3-4.5-4.9C79,137.9,78.9,137.8,78.7,137.8L78.7,137.8z"/>
<path class="st0" d="M20.3,142c0-2.3,0-4.5,0-6.8c0-0.4-0.1-0.8,0.4-1c0.5-0.2,1-0.2,1.4,0c0.3,0.1,0.3,0.4,0.4,0.7
	c0,0.4,0,0.9,0,1.3c0,1.4,0,2.7,0,4.1c0,0.7,0.1,0.8,0.8,0.8c2.9,0,5.8,0,8.7,0c0.7,0,0.8,0,0.8-0.8c0-1.7,0-3.4,0-5.1
	c0-0.4-0.1-0.8,0.4-1c0.5-0.2,1-0.2,1.4,0c0.2,0.1,0.3,0.3,0.3,0.5c0,0.2,0,0.5,0,0.7c0,4.4,0,8.7,0,13.1c0,0,0,0.1,0,0.1
	c0,1.1-0.7,1.6-1.8,1.2c-0.4-0.1-0.4-0.5-0.4-0.8c0-1,0-2,0-2.9c0-0.8,0-1.6,0-2.5c0-0.8-0.1-0.8-0.8-0.8c-2.1,0-4.2,0-6.3,0
	c-0.8,0-1.5,0-2.3,0c-0.7,0-0.8,0.1-0.8,0.8c0,1.7,0,3.3,0,5c0,1.2-0.2,1.4-1.4,1.3c-0.6,0-0.8-0.2-0.8-0.8c0-0.8,0-1.5,0-2.3
	C20.3,145.2,20.3,143.6,20.3,142L20.3,142z"/>
<path class="st0" d="M45.2,142c0-2.3,0-4.6,0-6.9c0-1,0.1-1.1,1.1-1.1c3.1,0,6.1,0,9.2,0c0.8,0,1.1,0.3,1.1,1c0,0.4-0.2,0.7-0.7,0.7
	c-0.2,0-0.5,0-0.7,0c-2.2,0-4.4,0-6.5,0c-0.2,0-0.4,0-0.7,0c-0.4,0-0.5,0.2-0.5,0.6c0,0.7,0,1.3,0,2c0,0.6,0,1.3,0,1.9
	c0,0.8,0,0.9,0.9,0.9c1.9,0,3.7,0,5.6,0c0.2,0,0.4,0,0.7,0c0.6,0,0.8,0.2,0.8,0.7c0,0.6-0.2,0.8-0.7,0.9c-0.3,0-0.5,0-0.8,0
	c-1.8,0-3.6,0-5.4,0c-0.9,0-0.9,0.1-0.9,0.9c0,1.2,0,2.4,0,3.6c0,0.8,0.1,0.9,0.9,0.9c2.2,0,4.4,0,6.5,0c0.4,0,0.8,0,1.1,0.1
	c0.4,0.1,0.6,0.4,0.5,0.9c0,0.5-0.2,0.7-0.6,0.7c-0.2,0-0.4,0-0.6,0c-3,0-5.9,0-8.9,0c-0.2,0-0.4,0-0.6,0c-0.4,0-0.6-0.2-0.6-0.6
	c0-0.2,0-0.5,0-0.7C45.2,146.3,45.2,144.2,45.2,142L45.2,142z"/>
<path class="st0" d="M122.4,148.3c1.3,0.1,2.8-0.5,4.2-1.4c0.7-0.5,0.9-0.4,1.6,0.1c0.5,0.4,0.5,0.7,0,1.1c-0.2,0.1-0.3,0.3-0.5,0.4
	c-3.7,2.5-9.1,2.1-12.5-0.9c-3.3-2.9-3.4-8-0.2-11c1.8-1.7,4-2.6,6.6-2.7c2.3-0.1,4.4,0.4,6.3,1.8c0.6,0.4,0.7,0.6,0.4,1
	c-0.4,0.7-1,0.9-1.6,0.5c-1.2-0.8-2.6-1.4-4.1-1.5c-3.4-0.3-7.1,1.7-7.7,5.5c-0.3,1.8,0.3,3.3,1.5,4.7
	C118,147.6,119.9,148.3,122.4,148.3L122.4,148.3z"/>
<path class="st0" d="M7.5,142.8c0,1.9,0,3.9,0,5.8c0,0.2,0,0.5,0,0.7c0,0.3-0.2,0.5-0.6,0.6c-0.1,0-0.3,0-0.4,0
	c-1,0-1.1-0.1-1.1-1.1c0-3.9,0-7.9,0-11.8c0-0.8-0.4-1.2-1.2-1.2c-1,0-1.9,0-2.9,0c-0.7,0-1-0.3-0.9-1c0-0.4,0.3-0.6,0.6-0.6
	c0.2,0,0.5,0,0.7,0c3.1,0,6.3,0,9.4,0c0.2,0,0.4,0,0.7,0c0.5,0.1,0.8,0.4,0.7,0.9c0,0.5-0.2,0.7-0.8,0.8c-1,0-2,0-3,0
	c-0.2,0-0.4,0-0.7,0c-0.4,0-0.6,0.2-0.6,0.6c0,0.4,0,0.9,0,1.3C7.5,139.4,7.5,141.1,7.5,142.8L7.5,142.8z"/>
<path class="st0" d="M103.8,142c0,2.1,0,4.3,0,6.4c0,0.2,0,0.5,0,0.7c0,0.4-0.3,0.6-0.6,0.6c-0.1,0-0.2,0-0.3,0
	c-1.2,0-1.3-0.1-1.3-1.3c0-4.4,0-8.8,0-13.1c0-0.1,0-0.1,0-0.2c0-1,0.2-1.2,1.3-1.2c0.8,0,1,0.2,1,1.1
	C103.8,137.5,103.8,139.8,103.8,142L103.8,142L103.8,142z"/>
<path class="st0" d="M139.5,142c0,2.2,0,4.3,0,6.5c0,0.2,0,0.4,0,0.7c0,0.1,0,0.3-0.1,0.4c-0.3,0.6-0.9,0.3-1.4,0.4
	c-0.4,0-0.6-0.2-0.7-0.6c0-0.2,0-0.4,0-0.6c0-4.5,0-8.9,0-13.4c0-0.2,0-0.4,0-0.6c0-0.4,0.3-0.6,0.6-0.6c0.2,0,0.5,0,0.7,0
	c0.6,0,0.8,0.2,0.8,0.8c0,0.2,0,0.4,0,0.7C139.5,137.7,139.5,139.8,139.5,142L139.5,142z"/>
</svg>
