<svg xmlns="http://www.w3.org/2000/svg" viewBox="0 0 78.95 8.5"><defs><style>.cls-1{fill:#fff;}</style></defs><g id="Layer_2" data-name="Layer 2"><g id="Layer_1-2" data-name="Layer 1"><g id="O5IIHd"><path class="cls-1" d="M72.05,7.55a4.27,4.27,0,0,1-5.33,0,4.31,4.31,0,0,1-5.36,0,4.25,4.25,0,1,1,0-6.63,4.3,4.3,0,0,1,5.35,0,4.31,4.31,0,0,1,5.35,0,4.25,4.25,0,0,1,5.78,6.19A4.25,4.25,0,0,1,72.05,7.55Zm.7-.69a3.27,3.27,0,0,0,4.13-5.07,3.23,3.23,0,0,0-4.13-.14A4.32,4.32,0,0,1,72.75,6.86Zm-12.08,0a4.31,4.31,0,0,1,0-5.21,3.27,3.27,0,0,0-4.32,4.88A3.24,3.24,0,0,0,60.67,6.86Zm6.73,0a3.23,3.23,0,0,0,3.95,0,4.29,4.29,0,0,1,0-5.21,3.21,3.21,0,0,0-3.95,0A4.29,4.29,0,0,1,67.4,6.85ZM66,6.84a4.25,4.25,0,0,1,0-5.18,3.2,3.2,0,0,0-3.94,0,4.31,4.31,0,0,1,0,5.2A3.21,3.21,0,0,0,66,6.84Zm.69-4.48a3.22,3.22,0,0,0,0,3.77A3.24,3.24,0,0,0,66.71,2.36ZM61.37,6.13a3.21,3.21,0,0,0,0-3.75A3.19,3.19,0,0,0,61.37,6.13Zm10.68,0a3.21,3.21,0,0,0,0-3.75A3.2,3.2,0,0,0,72.05,6.13Z"/></g><path class="cls-1" d="M1,8.37H0V2.77a.33.33,0,0,1,.31-.06,26.87,26.87,0,0,1,2.84,0,2.46,2.46,0,0,1,.47.1,1.64,1.64,0,0,1,1.11,2A1.75,1.75,0,0,1,3,6.28c-.49,0-1,0-1.48,0a1.17,1.17,0,0,0-.45,0,5,5,0,0,0,0,1C1,7.69,1,8,1,8.37ZM1,5.56c.39,0,.76,0,1.13,0a3.85,3.85,0,0,0,.67-.09,1,1,0,0,0,.88-1c0-.51-.28-.83-.88-1A11.93,11.93,0,0,0,1,3.46Z"/><path class="cls-1" d="M25.31,6.57H21.76A1.26,1.26,0,0,0,23,7.73a3.45,3.45,0,0,0,1.56-.22c.16-.06.32-.16.51-.08v.68a4.23,4.23,0,0,1-2,.37,2.81,2.81,0,0,1-.71-.08,2,2,0,0,1-1.57-2.33,1.9,1.9,0,0,1,1.77-1.8,4,4,0,0,1,1.24,0A1.86,1.86,0,0,1,25.31,6.57Zm-1-.7a1.24,1.24,0,0,0-1.27-.93,1.26,1.26,0,0,0-1.28.93Z"/><path class="cls-1" d="M13.85,8.5a7,7,0,0,1-.78-.09,1.94,1.94,0,0,1-1.61-2.33,1.91,1.91,0,0,1,1.85-1.81,5.62,5.62,0,0,1,1.23,0,2,2,0,0,1,1.9,2.33,1.89,1.89,0,0,1-1.51,1.78A6.25,6.25,0,0,1,13.85,8.5Zm1.57-2.15a1.36,1.36,0,0,0-1.49-1.41,1.36,1.36,0,0,0-1.47,1.43A1.34,1.34,0,0,0,14,7.77,1.33,1.33,0,0,0,15.42,6.35Z"/><path class="cls-1" d="M7.74,8.48a3.08,3.08,0,0,1-1-.14A1.94,1.94,0,0,1,5.45,6.08,1.92,1.92,0,0,1,7.3,4.27a5.71,5.71,0,0,1,1.24,0,2,2,0,0,1,1.88,2.41,1.84,1.84,0,0,1-1.5,1.7A4.67,4.67,0,0,1,7.74,8.48ZM9.42,6.35A1.37,1.37,0,0,0,7.93,4.94,1.36,1.36,0,0,0,6.45,6.37,1.33,1.33,0,0,0,8,7.77,1.34,1.34,0,0,0,9.42,6.35Z"/><path class="cls-1" d="M18.8,2.71a.79.79,0,0,1,.05.42v4c0,.49.11.58.59.56.2,0,.39-.12.6-.06v.68a2.94,2.94,0,0,1-1.69,0,.7.7,0,0,1-.44-.49,1.84,1.84,0,0,1-.06-.47c0-1.51,0-3,0-4.52a1.41,1.41,0,0,1,0-.18A5.83,5.83,0,0,1,18.8,2.71Z"/><path class="cls-1" d="M35.55,8.24H34.47c-.12,0-.17-.09-.23-.19s-.24-.41-.33-.63a.42.42,0,0,0-.46-.3h-2.6a.39.39,0,0,0-.38.23c-.12.24-.26.46-.38.7s-.11.19-.23.19a5.13,5.13,0,0,1-1.16-.05c.12-.24.21-.45.32-.66l1.92-3.66c.17-.33.35-.67.51-1a.22.22,0,0,1,.22-.13h1c.15,0,.2.09.26.2C33.47,4,34,5.05,34.57,6.11l1,1.78A.35.35,0,0,1,35.55,8.24Zm-3.37-4.3a4.24,4.24,0,0,0-.6,1.15,2.72,2.72,0,0,0-.46,1.12c.72-.09,1.4,0,2.15-.06C32.93,5.38,32.58,4.68,32.18,3.94Z"/><path class="cls-1" d="M47.11,8.27c-.4-.13-.91.22-1.1-.41-.32,0-.51.25-.77.34a2.43,2.43,0,0,1-2.72-.72,2.1,2.1,0,0,1-.19-2,2,2,0,0,1,1.88-1.22,2.89,2.89,0,0,1,1.45.21.34.34,0,0,0,.28,0V2.78a5.74,5.74,0,0,1,1.17-.06ZM46,6.26h0c0-.2,0-.4,0-.6a.31.31,0,0,0-.26-.35,3.86,3.86,0,0,0-1.17-.18,1.16,1.16,0,0,0-1.06,1.64.88.88,0,0,0,.57.57,3.29,3.29,0,0,0,1.43,0c.49-.14.49-.15.49-.65Z"/><path class="cls-1" d="M39.9,4.35a10.56,10.56,0,0,1,1.13,0V8.2a2.75,2.75,0,0,1-.86,0c-.21,0-.17-.24-.28-.38-.34.11-.65.32-1,.4a2.38,2.38,0,0,1-1.66-.15,1.48,1.48,0,0,1-.8-1.37c0-.79,0-1.57,0-2.39a8.17,8.17,0,0,1,1.1,0c.12.11.09.24.09.36,0,.58,0,1.17,0,1.76s.27,1,.91.94a2.76,2.76,0,0,0,1.06-.13.42.42,0,0,0,.29-.45c0-.68,0-1.36,0-2A1.25,1.25,0,0,1,39.9,4.35Z"/><path class="cls-1" d="M49.78,4.36c0,1.06,0,2.08,0,3.11,0,.85.15.77-.8.77H48.6c0-1.3,0-2.58,0-3.9A6.79,6.79,0,0,1,49.78,4.36Z"/><path class="cls-1" d="M49.77,2.74a6.13,6.13,0,0,1,0,1,3.69,3.69,0,0,1-1.15,0v-1A7.45,7.45,0,0,1,49.77,2.74Z"/></g></g></svg>