<?xml version="1.0" encoding="utf-8"?>
<!-- Generator: Adobe Illustrator 26.0.2, SVG Export Plug-In . SVG Version: 6.00 Build 0)  -->
<svg version="1.1" id="Layer_1" xmlns="http://www.w3.org/2000/svg" xmlns:xlink="http://www.w3.org/1999/xlink" x="0px" y="0px"
	 viewBox="0 0 457.2 122.6" style="enable-background:new 0 0 457.2 122.6;" xml:space="preserve">
<style type="text/css">
	.st0{fill:none;}
	.st1{fill:#FFFFFF;}
	.st2{fill:none;stroke:#000000;stroke-width:1.94;stroke-miterlimit:10;}
</style>
<polygon class="st0" points="369,59.2 378.2,82.2 387.7,58.7 378.5,35.6 "/>
<path class="st1" d="M428.1,56.7l-23,48.3l5.1,12.9h46.9L428.1,56.7z M407.3,105.1l20.9-43.9l26,54.7h-42.6L407.3,105.1z"/>
<path class="st1" d="M346.4,0h-46.9l29.1,61.2l23-48.3L346.4,0z M302.5,1.9h42.5l4.3,10.9l-20.9,43.9L302.5,1.9z"/>
<polygon class="st1" points="401.2,0 355.5,0 349.6,12.4 327.7,58.5 299.5,117.8 346.4,117.8 351.4,105.4 349.6,104.7 345.1,115.9 
	302.5,115.9 329.4,59.3 351.4,13.2 356.7,1.9 400,1.9 405.1,12.8 387.7,56.1 378.5,33 368.1,58.8 369.9,59.5 378.5,38.2 387.7,61.3 
	407.2,12.7 "/>
<line class="st2" x1="350.5" y1="105.1" x2="369" y2="59.2"/>
<path class="st1" d="M410.3,0l-5,12.4l-18.5,45.9l-8.6,21.3L369,56.6l-19.5,48.5l6.1,12.8h45.7l5.9-12.4L429,59.3L457.2,0H410.3z
	 M427.3,58.5l-21.9,46.1l-5.4,11.3h-43.3l-5.2-10.8L369,61.8l9.2,23.1l10.4-25.8L407,13.2L411.5,2h42.5L427.3,58.5z"/>
<path class="st1" d="M35.1,81.6l15.3-34.8L70,46.7L45.1,96.5H24.8L0,46.8h19.6L35.1,81.6z"/>
<path class="st1" d="M92.4,46.7H74.6v49.9h17.8V46.7z"/>
<path class="st1" d="M132,81.6l15.3-34.8l19.6-0.1l-24.9,49.9h-20.3L97,46.8h19.6L132,81.6z"/>
<path class="st1" d="M189.4,46.7h-17.8v49.9h17.8L189.4,46.7z"/>
<path class="st1" d="M242.1,29.1h17.8v67.3h-16l-1.1-5.8c-5.3,4.8-13.5,7.1-24.5,6.9c-4.4,0.1-8.8-1.1-12.5-3.5
	c-3.7-2.4-6.6-5.7-8.5-9.6c-2.1-4.2-3.2-8.9-3.2-13.6v-0.5c0-4.3,1.1-8.5,3.1-12.3c2-3.8,4.9-7.1,8.5-9.5c3.7-2.4,8.1-3.7,12.6-3.6
	c10.5,0,18.4,2.5,23.8,7.4L242.1,29.1z M235.1,84.5c2.2-1.4,4-3.3,5.2-5.6c1.2-2.3,1.8-4.8,1.8-7.4v-0.1c0.2-4.1-1.3-8.1-4-11.2
	c-2.7-2.9-6.5-4.5-10.5-4.3c-2.9-0.1-5.8,0.7-8.4,2.1c-2.2,1.3-4,3.2-5.2,5.5c-1.1,2.2-1.7,4.6-1.8,7c0,2.7,0.6,5.4,1.8,7.9
	c1.1,2.4,2.9,4.5,5.2,5.9c2.5,1.5,5.4,2.3,8.4,2.2C230.2,86.6,232.8,85.9,235.1,84.5L235.1,84.5z"/>
<path class="st1" d="M283.3,81v15.5h-17.7V81H283.3z"/>
<path class="st1" d="M125.2,103.1c1.4-0.2,2.8-0.3,4.1-0.3c2.8,0,4.8,0.6,6.1,1.9c1.5,1.4,2.2,3.4,2.1,5.4c0.1,2.2-0.7,4.3-2.2,5.9
	c-1.4,1.4-3.7,2.2-6.7,2.2c-1.2,0-2.4-0.1-3.5-0.2V103.1z M127.2,116.4c0.7,0.1,1.3,0.1,2,0.1c4.2,0,6.4-2.3,6.4-6.4
	c0-3.6-2-5.8-6.1-5.8c-0.8,0-1.5,0.1-2.3,0.2L127.2,116.4z"/>
<path class="st1" d="M142.2,104.1c0,0.6-0.5,1.2-1.1,1.2c-0.1,0-0.1,0-0.2,0c-0.6,0-1.2-0.5-1.2-1.1c0,0,0,0,0-0.1
	c0-0.7,0.5-1.2,1.2-1.2c0,0,0,0,0.1,0c0.6,0,1.2,0.5,1.2,1.1C142.3,104,142.3,104,142.2,104.1z M140.1,117.9v-10.9h2v10.8
	L140.1,117.9z"/>
<path class="st1" d="M154.6,107.1c0,0.8-0.1,1.7-0.1,3v6.3c0,2.5-0.5,4-1.5,4.9c-1.1,0.9-2.5,1.4-3.9,1.3c-1.3,0-2.5-0.3-3.6-0.9
	l0.5-1.5c1,0.6,2.1,0.9,3.2,0.9c2,0,3.5-1,3.5-3.8v-1.2h-0.1c-0.7,1.2-2.1,1.9-3.4,1.8c-2.7,0-4.6-2.3-4.6-5.3
	c0-3.7,2.4-5.8,4.9-5.8c1.4-0.1,2.7,0.7,3.4,1.9l0,0l0.1-1.6L154.6,107.1z M152.6,111.4c0.1-1.6-1.2-2.9-2.7-3c0,0-0.1,0-0.1,0
	c-1.9,0-3.2,1.6-3.2,4.1c0,2.1,1.1,3.9,3.2,3.9c1.2,0,2.3-0.8,2.7-2c0.1-0.3,0.1-0.7,0.2-1L152.6,111.4z"/>
<path class="st1" d="M159.9,104.1c0,0.7-0.5,1.2-1.2,1.2c-0.7,0-1.2-0.5-1.2-1.2c0-0.7,0.5-1.2,1.2-1.2c0,0,0,0,0.1,0
	c0.6,0,1.2,0.5,1.2,1.1C159.9,104,159.9,104,159.9,104.1z M157.7,117.9v-10.9h2v10.8L157.7,117.9z"/>
<path class="st1" d="M165.3,104v3.1h2.8v1.5h-2.8v5.8c0,1.4,0.4,2.1,1.5,2.1c0.4,0,0.8,0,1.1-0.1l0.1,1.5c-0.6,0.2-1.2,0.3-1.8,0.3
	c-0.8,0-1.6-0.3-2.1-0.8c-0.6-0.8-0.9-1.8-0.8-2.8v-5.9h-1.7v-1.5h1.7v-2.6L165.3,104z"/>
<path class="st1" d="M176.3,117.9l-0.2-1.4h-0.1c-0.8,1-2,1.6-3.3,1.6c-1.7,0.1-3.2-1.1-3.3-2.9c0-0.1,0-0.2,0-0.3
	c0-2.6,2.3-4,6.5-4v-0.2c0.2-1.2-0.7-2.3-1.9-2.5c-0.2,0-0.4,0-0.5,0c-1,0-2,0.3-2.8,0.8l-0.5-1.3c1.1-0.7,2.3-1,3.6-1
	c3.3,0,4.1,2.3,4.1,4.4v4c0,0.9,0,1.7,0.2,2.6L176.3,117.9z M176,112.4c-2.2,0-4.6,0.3-4.6,2.5c-0.1,1,0.6,1.8,1.6,1.9
	c0.1,0,0.2,0,0.3,0c1.2,0,2.2-0.7,2.6-1.8c0.1-0.2,0.1-0.4,0.1-0.6L176,112.4z"/>
<path class="st1" d="M181.1,102h2v15.9h-2V102z"/>
<path class="st1" d="M203.9,111.3c-0.1-2.1-0.2-4.6-0.2-6.5h-0.1c-0.5,1.8-1.2,3.6-1.9,5.7l-2.7,7.3h-1.5l-2.4-7.2
	c-0.7-2.1-1.3-4.1-1.8-5.9l0,0c0,1.9-0.2,4.4-0.3,6.7l-0.4,6.5h-1.9l1-15.1h2.5l2.6,7.3c0.6,1.9,1.1,3.5,1.5,5.1h0.1
	c0.4-1.5,0.9-3.2,1.6-5.1l2.7-7.3h2.5l0.9,15.1h-1.9L203.9,111.3z"/>
<path class="st1" d="M215.2,117.9l-0.2-1.4H215c-0.8,1-2,1.6-3.3,1.6c-1.7,0.1-3.2-1.1-3.3-2.8c0-0.1,0-0.2,0-0.3c0-2.6,2.3-4,6.5-4
	v-0.2c0.2-1.2-0.7-2.3-1.9-2.5c-0.2,0-0.4,0-0.5,0c-1,0-2,0.3-2.8,0.8l-0.5-1.3c1.1-0.7,2.3-1,3.6-1c3.3,0,4.1,2.3,4.1,4.4v4
	c0,0.9,0,1.7,0.2,2.6L215.2,117.9z M215,112.4c-2.2,0-4.6,0.3-4.6,2.5c-0.1,1,0.6,1.8,1.6,1.9c0.1,0,0.2,0,0.3,0
	c1.2,0,2.2-0.7,2.6-1.8c0.1-0.2,0.1-0.4,0.1-0.6L215,112.4z"/>
<path class="st1" d="M220,110.5c0-1.3,0-2.4-0.1-3.4h1.7l0.1,2.1h0.1c0.4-1.4,1.6-2.3,3-2.4c0.2,0,0.4,0,0.6,0.1v1.9
	c-1.5-0.3-2.9,0.6-3.3,2c0,0.1-0.1,0.3-0.1,0.4c-0.1,0.3-0.1,0.6-0.1,0.9v5.8H220L220,110.5z"/>
<path class="st1" d="M229.4,112.1L229.4,112.1c0.3-0.4,0.7-0.9,1-1.2l3.2-3.8h2.4l-4.2,4.5l4.8,6.4h-2.4l-3.7-5.2l-1,1.1v4.1h-2V102
	h2L229.4,112.1z"/>
<path class="st1" d="M239,112.9c-0.2,1.9,1.3,3.6,3.2,3.8c0.2,0,0.4,0,0.5,0c1,0,2.1-0.2,3-0.6l0.3,1.4c-1.1,0.5-2.4,0.7-3.6,0.7
	c-3.3,0-5.3-2.2-5.3-5.5s1.9-5.9,5.1-5.9c3.5,0,4.5,3.1,4.5,5.1c0,0.3,0,0.6-0.1,0.9L239,112.9z M244.8,111.4c0-1.3-0.5-3.2-2.7-3.2
	c-2,0-2.9,1.8-3,3.2H244.8z"/>
<path class="st1" d="M251.5,104v3.1h2.8v1.5h-2.8v5.8c0,1.4,0.4,2.1,1.5,2.1c0.4,0,0.8,0,1.1-0.1l0.1,1.5c-0.6,0.2-1.2,0.3-1.8,0.3
	c-0.8,0-1.6-0.3-2.1-0.8c-0.6-0.8-0.9-1.8-0.8-2.8v-5.9H248v-1.5h1.7v-2.6L251.5,104z"/>
<path class="st1" d="M258.8,104.1c0,0.7-0.5,1.2-1.2,1.2c-0.7,0-1.2-0.5-1.2-1.2c0-0.7,0.5-1.2,1.2-1.2c0,0,0,0,0.1,0
	c0.6,0,1.2,0.5,1.2,1.1C258.8,104,258.8,104,258.8,104.1z M256.5,117.9v-10.8h2v10.8H256.5z"/>
<path class="st1" d="M261.8,110c0-1.1,0-2-0.1-2.9h1.8l0.1,1.8l0,0c0.7-1.3,2.1-2,3.6-2c1.5,0,3.8,0.9,3.8,4.6v6.5h-2v-6.2
	c0-1.8-0.7-3.2-2.5-3.2c-1.6,0-2.8,1.4-2.8,2.9v6.5h-2L261.8,110z"/>
<path class="st1" d="M283.5,107.1c0,0.8-0.1,1.7-0.1,3v6.3c0,2.5-0.5,4-1.5,4.9c-1.1,0.9-2.5,1.4-3.9,1.3c-1.3,0-2.5-0.3-3.6-0.9
	l0.5-1.5c1,0.6,2.1,0.9,3.2,0.9c2,0,3.5-1,3.5-3.8v-1.2h0c-0.7,1.2-2.1,1.9-3.4,1.8c-2.7,0-4.6-2.3-4.6-5.3c0-3.7,2.4-5.8,4.9-5.8
	c1.4-0.1,2.7,0.7,3.4,1.9l0,0l0.1-1.6L283.5,107.1z M281.5,111.4c0-1.6-1.2-2.9-2.8-3c0,0,0,0-0.1,0c-1.9,0-3.2,1.6-3.2,4.1
	c0,2.1,1.1,3.9,3.2,3.9c1.2,0,2.4-0.8,2.7-2c0.1-0.3,0.2-0.7,0.2-1V111.4z"/>
</svg>
